{"glyphs":{"0":{"ha":557,"x_min":54,"x_max":501,"o":"m 501 196 q 482 97 501 140 q 460 61 474 79 q 427 29 447 43 q 380 7 407 15 q 315 -1 353 -1 l 240 -1 q 177 7 204 -1 q 130 29 150 15 q 97 61 110 43 q 75 97 83 79 q 54 196 54 140 l 54 735 q 75 833 54 790 q 130 901 92 871 q 240 932 168 932 l 315 932 q 427 901 389 932 q 482 833 465 871 q 501 735 501 790 l 501 196 m 363 746 q 357 774 363 764 q 344 790 351 785 q 328 796 336 794 q 313 797 319 797 l 243 797 q 228 796 238 797 q 213 790 219 794 q 200 774 206 785 q 194 746 194 764 l 194 185 q 200 158 194 168 q 213 142 206 147 q 228 135 219 136 q 243 133 238 133 l 313 133 q 328 135 319 133 q 344 142 336 136 q 357 158 351 147 q 363 185 363 168 l 363 746 z "},"1":{"ha":340,"x_min":43,"x_max":296,"o":"m 293 11 q 296 3 296 8 q 289 -1 294 -1 l 74 -1 q 67 3 69 -1 q 68 11 67 8 q 78 21 72 15 q 88 30 82 25 q 97 39 93 35 q 111 72 111 56 l 111 721 q 100 733 111 733 l 56 733 q 46 738 50 733 q 43 746 43 740 l 43 847 q 54 858 43 858 q 87 869 74 861 q 109 886 100 876 q 123 906 118 896 q 129 922 128 915 q 140 931 129 931 q 161 931 149 931 q 188 932 174 932 q 217 932 203 932 q 239 932 231 932 q 247 928 246 932 q 251 919 251 926 l 251 72 q 265 39 251 53 l 293 11 l 293 11 z "},"2":{"ha":522,"x_min":50,"x_max":472,"o":"m 467 176 q 471 169 471 175 l 471 10 q 460 -1 471 -1 l 63 -1 q 50 10 50 -1 l 50 189 q 61 307 50 263 q 94 381 72 351 q 150 433 117 410 q 226 485 183 456 q 283 528 263 508 q 314 570 303 549 q 328 617 325 592 q 331 675 331 642 l 331 746 q 325 773 331 763 q 313 788 319 783 q 297 794 306 793 q 282 796 289 796 l 250 796 q 235 794 243 796 q 219 788 226 793 q 206 773 211 783 q 200 746 200 763 l 200 597 q 196 590 200 593 q 189 590 193 588 q 161 605 179 596 q 125 623 143 614 q 90 640 107 632 q 65 653 74 649 q 60 664 60 658 l 60 735 q 81 833 60 790 q 135 901 97 871 q 246 932 174 932 l 285 932 q 349 924 321 932 q 397 901 376 915 q 430 870 417 888 q 451 833 443 853 q 471 735 471 790 l 471 665 q 472 607 471 633 q 468 558 472 581 q 454 513 464 535 q 422 468 444 492 q 365 417 400 444 q 275 354 329 389 q 226 314 243 333 q 201 276 208 294 q 192 238 193 257 q 190 200 190 219 l 190 146 q 193 138 190 140 q 201 133 197 133 l 399 133 q 432 147 415 133 l 460 175 q 467 176 463 178 l 467 176 z "},"3":{"ha":532,"x_min":44,"x_max":479,"o":"m 479 197 q 460 99 479 142 q 405 30 443 61 q 293 -1 367 -1 l 231 -1 q 120 30 158 -1 q 65 99 82 61 q 44 197 44 142 l 44 235 q 51 246 44 242 q 76 258 60 250 q 111 276 93 267 q 147 294 129 286 q 174 308 164 303 q 181 308 178 311 q 185 301 185 307 l 185 185 q 190 158 185 168 q 203 142 196 147 q 219 135 210 136 q 233 133 228 133 l 290 133 q 306 135 297 133 q 322 142 314 136 q 335 158 329 147 q 340 185 340 168 l 340 347 q 334 376 340 365 q 319 392 328 386 q 302 399 311 397 q 286 400 293 400 l 210 400 q 201 403 204 400 q 197 411 197 407 l 197 522 q 201 532 197 528 q 210 535 204 535 l 279 535 q 296 536 286 535 q 314 543 306 538 q 328 559 322 549 q 333 586 333 569 l 333 746 q 328 773 333 763 q 315 788 322 783 q 300 794 308 793 q 285 796 292 796 l 233 796 q 219 794 228 796 q 203 788 210 793 q 190 773 196 783 q 185 746 185 763 l 185 629 q 181 624 185 626 q 174 624 178 621 q 147 638 164 629 q 111 656 129 647 q 76 674 93 665 q 51 686 60 682 q 44 697 44 689 l 44 735 q 65 833 44 790 q 120 901 82 871 q 231 932 158 932 l 288 932 q 351 924 324 932 q 399 901 379 915 q 433 870 419 888 q 454 833 446 853 q 474 735 474 790 l 474 599 q 465 554 472 576 q 446 513 458 535 q 408 474 433 492 q 406 469 406 471 q 408 465 406 468 q 450 425 436 447 q 471 383 464 403 q 479 338 478 361 l 479 197 z "},"4":{"ha":589,"x_min":31,"x_max":544,"o":"m 532 361 q 540 363 536 365 q 544 357 544 363 l 544 142 q 540 135 544 138 q 532 136 538 133 q 519 149 526 143 q 508 161 514 156 q 497 172 503 167 q 467 185 482 185 q 465 182 465 185 l 465 74 q 479 40 465 53 l 499 21 q 508 11 504 15 q 510 3 510 8 q 503 -1 508 -1 l 288 -1 q 281 3 283 -1 q 283 11 281 8 l 313 40 q 326 74 326 54 l 326 172 q 322 181 326 179 q 314 185 321 185 l 43 185 q 35 188 38 185 q 31 196 31 192 l 31 301 q 33 311 31 306 q 62 371 40 325 q 113 480 83 417 q 176 615 143 543 q 240 749 210 686 q 293 861 271 813 q 324 925 315 910 q 333 932 326 932 l 453 932 q 461 928 457 932 q 464 919 464 926 l 464 324 q 469 319 464 319 l 469 319 q 504 333 490 319 q 522 351 514 344 q 532 361 528 357 m 326 624 q 322 628 326 628 q 317 625 319 631 q 288 559 307 601 q 250 471 269 517 q 213 385 231 425 q 189 329 196 346 q 189 322 188 326 q 194 319 192 319 l 314 319 q 326 331 326 319 l 326 624 z "},"5":{"ha":528,"x_min":53,"x_max":476,"o":"m 476 197 q 457 99 476 142 q 402 30 440 61 q 290 -1 364 -1 l 240 -1 q 130 30 168 -1 q 75 99 92 61 q 54 197 54 142 l 54 276 q 61 286 54 283 q 85 299 69 290 q 119 317 101 307 q 155 335 138 326 q 182 349 172 343 q 189 349 186 351 q 193 343 193 347 l 193 185 q 199 157 193 167 q 212 142 204 147 q 228 135 219 136 q 243 133 238 133 l 288 133 q 319 142 301 133 q 338 185 338 150 l 338 396 q 332 424 338 414 q 319 440 326 435 q 303 447 311 446 q 288 449 294 449 l 65 449 q 53 461 53 449 l 53 919 q 56 928 53 925 q 65 932 60 932 l 451 932 q 460 928 456 932 q 464 919 464 926 l 464 757 q 458 750 464 753 q 451 751 454 749 l 421 782 q 386 796 407 796 l 204 796 q 196 793 199 796 q 193 785 193 788 l 193 596 q 204 583 193 583 l 290 583 q 402 553 364 583 q 457 485 440 522 q 476 386 476 442 l 476 197 z "},"6":{"ha":546,"x_min":54,"x_max":496,"o":"m 310 558 q 374 550 346 558 q 422 528 401 542 q 455 497 442 514 q 476 460 468 479 q 496 361 496 417 l 496 196 q 476 97 496 140 q 455 61 468 79 q 422 29 442 43 q 374 7 401 15 q 310 -1 346 -1 l 240 -1 q 177 7 204 -1 q 130 29 150 15 q 97 61 110 43 q 75 97 83 79 q 54 196 54 140 l 54 733 q 75 833 54 789 q 97 869 83 851 q 130 901 110 888 q 177 924 150 915 q 240 932 204 932 l 310 932 q 374 924 346 932 q 422 901 401 915 q 455 869 442 888 q 476 833 468 851 q 496 733 496 789 l 496 719 q 489 710 496 713 q 464 697 481 706 q 429 680 447 689 q 394 662 411 671 q 367 647 376 653 q 360 647 363 644 q 356 653 356 650 l 356 746 q 350 773 356 763 q 338 788 344 783 q 322 794 331 793 q 307 796 314 796 l 243 796 q 228 794 238 796 q 213 788 219 793 q 200 773 206 783 q 194 746 194 763 l 194 540 q 196 536 194 538 l 201 536 q 297 558 239 558 l 310 558 m 356 371 q 350 399 356 389 q 338 415 344 410 q 322 422 331 421 q 307 424 314 424 l 243 424 q 228 422 238 424 q 213 415 219 421 q 200 399 206 410 q 194 371 194 389 l 194 185 q 200 157 194 167 q 213 142 206 147 q 228 135 219 136 q 243 133 238 133 l 307 133 q 322 135 314 133 q 338 142 331 136 q 350 157 344 147 q 356 185 356 167 l 356 371 z "},"7":{"ha":525,"x_min":32,"x_max":489,"o":"m 486 928 q 489 919 489 925 l 489 817 q 488 804 489 808 q 469 738 483 789 q 437 617 456 688 q 396 467 418 547 q 353 312 374 386 q 315 176 332 238 q 290 83 299 114 q 303 36 283 56 q 313 27 308 32 q 321 19 317 22 q 329 11 325 15 q 331 3 332 6 q 324 -1 329 -1 l 93 -1 q 88 3 88 -1 q 89 11 85 7 l 126 49 q 139 69 138 60 q 161 149 146 92 q 197 278 176 206 q 239 433 217 351 q 281 587 261 514 q 315 714 300 660 q 335 788 329 768 q 333 793 335 792 q 328 796 332 796 l 182 796 q 174 793 176 796 q 171 785 171 790 l 171 663 q 167 656 171 658 q 164 655 165 656 q 160 656 163 654 q 133 670 150 661 q 97 688 115 679 q 63 706 79 697 q 39 718 47 714 q 32 729 32 722 l 32 919 q 35 928 32 925 q 44 932 39 932 l 478 932 q 486 928 482 932 z "},"8":{"ha":539,"x_min":51,"x_max":486,"o":"m 486 196 q 467 97 486 140 q 445 61 458 79 q 412 29 432 43 q 365 7 392 15 q 300 -1 338 -1 l 238 -1 q 174 7 201 -1 q 127 29 147 15 q 94 61 107 43 q 72 97 81 79 q 51 196 51 140 l 51 338 q 61 383 53 361 q 83 425 68 403 q 124 465 97 447 q 126 469 126 468 q 124 474 126 471 q 88 513 100 492 q 68 554 75 535 q 60 599 61 576 l 60 735 q 79 833 60 790 q 135 901 96 871 q 246 932 174 932 l 293 932 q 357 924 329 932 q 405 901 385 915 q 438 870 425 888 q 460 833 451 853 q 479 735 479 790 l 479 599 q 471 554 478 576 q 451 513 464 535 q 414 474 439 492 q 413 472 414 472 q 413 469 413 471 q 415 465 413 468 q 457 425 443 447 q 478 383 471 403 q 486 338 485 361 l 486 196 m 199 586 q 205 559 199 569 q 219 543 211 549 q 238 536 228 538 q 253 535 247 535 l 285 535 q 301 536 292 535 q 319 543 311 538 q 334 559 328 549 q 340 586 340 569 l 340 746 q 335 773 340 763 q 322 788 329 783 q 306 794 314 793 q 290 796 297 796 l 249 796 q 233 794 242 796 q 217 788 225 793 q 204 773 210 783 q 199 746 199 763 l 199 586 m 297 133 q 313 135 304 133 q 328 142 321 136 q 342 157 336 147 q 347 185 347 167 l 347 185 l 347 347 q 341 376 347 365 q 326 392 335 386 q 309 399 318 397 q 293 400 300 400 l 246 400 q 230 399 239 400 q 213 392 221 397 q 198 376 204 386 q 192 347 192 365 l 192 185 q 210 142 192 150 q 242 133 228 133 l 297 133 z "},"9":{"ha":546,"x_min":50,"x_max":492,"o":"m 306 932 q 369 924 342 932 q 417 901 397 915 q 451 870 438 888 q 472 833 464 853 q 492 735 492 790 l 492 197 q 472 99 492 142 q 451 63 464 81 q 417 30 438 44 q 369 7 397 15 q 306 -1 342 -1 l 236 -1 q 126 30 164 -1 q 71 99 88 61 q 50 197 50 142 l 50 211 q 57 221 50 218 q 82 234 65 225 q 117 252 99 243 q 152 270 135 261 q 179 285 169 279 q 186 283 185 285 q 190 278 190 282 l 190 185 q 196 157 190 167 q 208 142 201 147 q 224 135 215 136 q 239 133 233 133 l 303 133 q 318 135 310 133 q 333 142 326 136 q 346 157 340 147 q 351 185 351 167 l 351 390 q 349 394 351 393 q 344 394 347 397 q 303 377 326 383 q 249 371 279 371 l 236 371 q 126 402 164 371 q 71 471 88 433 q 50 569 50 514 l 50 735 q 71 833 50 790 q 126 901 88 871 q 236 932 164 932 l 306 932 m 351 746 q 346 773 351 763 q 333 788 340 783 q 318 794 326 793 q 303 796 310 796 l 239 796 q 224 794 233 796 q 208 788 215 793 q 196 773 201 783 q 190 746 190 763 l 190 557 q 196 530 190 540 q 208 515 201 519 q 224 508 215 510 q 239 507 233 507 l 303 507 q 318 508 310 507 q 333 515 326 510 q 346 530 340 519 q 351 557 351 540 l 351 746 z "},"\u0000":{"ha":0,"x_min":0,"x_max":0,"o":""},"\r":{"ha":0,"x_min":0,"x_max":0,"o":""}," ":{"ha":292,"x_min":0,"x_max":0,"o":""},"\n":{"ha":0,"x_min":0,"x_max":0,"o":""},"!":{"ha":249,"x_min":54,"x_max":194,"o":"m 67 -1 q 54 10 54 -1 l 54 126 q 67 139 54 139 l 182 139 q 194 126 194 139 l 194 10 q 182 -1 194 -1 l 67 -1 m 67 231 q 54 243 54 231 l 54 919 q 67 932 54 932 l 182 932 q 194 919 194 932 l 194 243 q 182 231 194 231 l 67 231 z "},"\"":{"ha":379,"x_min":24,"x_max":356,"o":"m 157 1025 q 162 1024 160 1025 q 167 1021 164 1022 q 169 1011 169 1015 q 162 957 167 993 q 151 881 157 921 q 142 806 146 842 q 135 756 138 771 q 122 744 132 744 l 69 744 q 58 756 58 744 q 52 806 57 771 q 42 881 47 842 q 31 957 36 921 q 24 1011 26 993 q 26 1021 24 1015 q 31 1024 29 1022 q 36 1025 33 1025 l 157 1025 m 353 1021 q 356 1011 356 1015 q 348 957 353 993 q 338 881 343 921 q 328 806 332 842 q 321 756 324 771 q 310 744 318 744 l 256 744 q 244 756 247 744 q 238 806 243 771 q 228 881 233 842 q 217 957 222 921 q 210 1011 213 993 q 213 1021 210 1015 q 217 1024 215 1022 q 222 1025 219 1025 l 343 1025 q 348 1024 346 1025 q 353 1021 350 1022 z "},"#":{"ha":775,"x_min":35,"x_max":740,"o":"m 738 693 q 740 683 740 688 q 736 661 739 674 q 731 635 733 649 q 726 609 728 621 q 722 589 724 597 q 711 579 719 579 l 603 579 q 592 569 592 579 q 583 528 589 556 q 572 469 578 500 q 561 410 567 439 q 553 365 556 381 q 554 356 551 361 q 564 351 558 351 l 663 351 q 672 346 667 351 q 675 336 675 340 q 671 315 674 328 q 665 288 668 301 q 660 263 663 275 q 657 243 658 251 q 646 233 654 233 l 538 233 q 526 224 529 233 q 518 179 524 210 q 506 115 513 149 q 493 52 499 82 q 485 8 488 22 q 474 -1 482 -1 l 381 -1 q 371 3 375 -1 q 368 13 368 6 q 376 56 371 28 q 388 115 382 85 q 399 174 393 146 q 407 219 404 203 q 404 229 407 226 q 394 233 400 233 l 288 233 q 275 224 278 233 q 267 179 272 210 q 256 115 261 149 q 244 52 250 82 q 236 8 239 22 q 224 -1 233 -1 l 129 -1 q 121 3 124 -1 q 118 13 117 7 q 126 56 121 28 q 138 115 132 85 q 149 174 143 146 q 157 218 154 203 q 154 229 160 225 q 146 233 153 233 l 47 233 q 38 238 42 233 q 35 247 35 240 q 44 295 38 265 q 53 342 50 325 q 64 351 53 351 l 172 351 q 183 360 182 351 q 191 401 186 374 q 202 460 196 429 q 214 520 208 492 q 222 565 219 549 q 219 575 225 569 q 211 579 218 579 l 111 579 q 103 583 107 579 q 100 593 100 586 q 104 615 101 603 q 109 642 107 628 q 114 667 111 656 q 118 688 117 679 q 129 697 118 697 l 238 697 q 249 707 246 697 q 257 751 251 721 q 269 814 263 781 q 281 878 275 847 q 290 922 288 908 q 301 932 290 932 l 394 932 q 404 928 400 932 q 407 918 407 922 q 399 874 404 903 q 388 815 393 846 q 376 755 382 783 q 368 711 371 726 q 371 701 368 704 q 379 697 374 697 l 488 697 q 500 707 497 697 q 508 751 503 721 q 519 814 514 781 q 531 878 525 847 q 539 922 536 908 q 551 932 542 932 l 646 932 q 654 928 653 932 q 657 918 657 925 q 649 873 654 901 q 637 814 643 844 q 626 755 631 783 q 618 711 621 726 q 619 701 617 707 q 629 697 624 697 l 728 697 q 738 693 733 697 l 738 693 m 435 361 q 442 402 438 375 q 453 460 447 429 q 464 520 458 492 q 472 565 469 549 q 469 575 472 569 q 460 579 465 579 l 353 579 q 340 569 343 579 q 333 528 338 556 q 322 469 328 500 q 311 410 317 439 q 303 365 306 381 q 306 356 303 358 q 315 351 310 351 l 422 351 q 435 361 433 351 z "},"%":{"ha":771,"x_min":35,"x_max":736,"o":"m 611 926 q 613 915 614 921 q 577 813 603 886 q 518 647 551 740 q 448 449 485 553 q 379 253 411 344 q 324 94 347 161 q 292 6 300 26 q 281 -1 289 -1 l 171 -1 q 161 3 164 -1 q 158 14 158 7 q 182 83 165 36 q 220 192 199 129 q 267 330 242 256 q 319 481 293 404 q 371 630 346 557 q 417 763 396 703 q 452 865 438 822 q 472 924 467 908 q 485 932 478 932 l 601 932 q 611 926 606 932 l 611 926 m 736 219 q 724 161 736 186 q 690 119 713 138 q 624 101 668 101 l 575 101 q 508 119 531 101 q 476 161 486 138 q 464 219 464 186 l 464 301 q 476 360 464 335 q 508 400 486 382 q 575 418 531 418 l 624 418 q 690 400 668 418 q 724 360 713 382 q 736 301 736 335 l 736 219 m 653 307 q 641 332 653 326 q 622 338 629 338 l 576 338 q 558 332 569 338 q 546 307 546 326 l 546 213 q 558 187 546 192 q 576 182 569 182 l 622 182 q 641 187 629 182 q 653 213 653 192 l 653 307 m 308 629 q 297 569 308 596 q 264 528 286 547 q 197 510 242 510 l 146 510 q 79 528 101 510 q 47 569 57 547 q 35 629 35 596 l 35 710 q 47 769 35 743 q 79 810 57 792 q 146 828 101 828 l 197 828 q 264 810 242 828 q 297 769 286 792 q 308 710 308 743 l 308 629 m 196 592 q 214 597 203 592 q 225 622 225 601 l 225 715 q 214 741 225 736 q 196 746 203 746 l 149 746 q 129 741 140 746 q 118 715 118 736 l 118 622 q 129 597 118 601 q 149 592 140 592 l 196 592 z "},"'":{"ha":193,"x_min":24,"x_max":169,"o":"m 167 1021 q 169 1011 169 1015 q 162 957 167 993 q 151 881 157 921 q 142 806 146 842 q 135 756 138 771 q 124 744 132 744 l 69 744 q 58 756 58 744 q 52 806 57 771 q 42 881 47 842 q 31 957 36 921 q 24 1011 26 993 q 26 1021 24 1018 q 31 1024 29 1022 q 36 1025 33 1025 l 157 1025 q 162 1024 160 1025 q 167 1021 164 1022 z "},"(":{"ha":328,"x_min":56,"x_max":293,"o":"m 244 892 q 230 890 239 892 q 214 884 221 889 q 201 869 207 879 q 196 840 196 858 l 196 89 q 201 62 196 72 q 214 47 207 51 q 230 40 221 42 q 244 39 239 39 l 281 39 q 293 26 293 39 l 293 -85 q 281 -97 293 -97 l 242 -97 q 131 -66 169 -97 q 76 3 93 -35 q 56 101 56 46 l 56 829 q 76 928 56 885 q 131 996 93 965 q 242 1026 169 1026 l 281 1026 q 293 1015 293 1026 l 293 903 q 281 892 293 892 l 244 892 z "},")":{"ha":328,"x_min":35,"x_max":272,"o":"m 272 101 q 251 3 272 46 q 197 -66 235 -35 q 85 -97 158 -97 l 47 -97 q 35 -85 35 -97 l 35 26 q 47 39 35 39 l 82 39 q 97 40 89 39 q 113 47 106 42 q 126 62 121 51 q 132 89 132 72 l 132 840 q 126 869 132 858 q 113 884 121 879 q 97 890 106 889 q 82 892 89 892 l 47 892 q 35 903 35 892 l 35 1015 q 47 1026 35 1026 l 85 1026 q 197 996 158 1026 q 251 928 235 965 q 272 829 272 885 l 272 101 z "},"*":{"ha":464,"x_min":39,"x_max":425,"o":"m 417 689 q 424 682 421 686 q 422 672 425 679 q 401 637 414 658 q 381 601 389 615 q 374 596 378 596 q 364 597 369 594 q 344 613 356 604 q 321 630 333 621 q 297 647 308 639 q 279 661 286 656 q 274 661 276 664 q 271 657 271 661 q 278 606 274 639 q 285 553 282 572 q 281 543 285 547 q 272 539 279 539 l 189 539 q 181 543 183 539 q 178 553 176 547 q 184 606 181 572 q 190 657 188 639 q 188 661 190 661 q 183 661 186 664 q 165 647 176 656 q 142 630 154 639 q 118 613 129 621 q 100 599 107 604 q 90 596 94 593 q 82 601 85 596 q 61 637 74 615 q 40 672 49 658 q 39 682 39 675 q 46 689 42 686 q 67 699 54 693 q 94 710 81 704 q 122 721 108 715 q 143 731 135 726 q 146 735 146 731 q 143 739 146 739 q 122 748 135 743 q 94 759 108 753 q 67 771 81 765 q 46 781 54 776 q 39 788 40 783 q 40 797 39 794 q 61 833 49 811 q 82 869 74 856 q 90 875 83 872 q 100 872 97 875 q 118 858 107 867 q 142 841 129 850 q 165 824 154 832 q 183 810 176 815 q 188 810 186 808 q 190 814 190 810 q 184 865 188 832 q 178 918 181 899 q 181 928 176 924 q 189 932 183 932 l 272 932 q 281 928 279 932 q 285 918 285 924 q 278 865 282 899 q 271 814 274 832 q 274 810 271 810 q 279 810 276 807 q 297 824 286 815 q 321 841 308 832 q 344 858 333 850 q 364 872 356 867 q 372 875 367 875 q 381 869 379 872 q 402 833 389 856 q 422 797 415 811 q 424 788 425 792 q 417 781 422 783 q 395 771 408 776 q 368 759 382 765 q 341 748 354 753 q 319 739 328 743 q 317 735 317 739 q 319 731 317 731 q 341 721 328 726 q 368 710 354 715 q 395 699 382 704 q 417 689 408 693 z "},"+":{"ha":547,"x_min":36,"x_max":510,"o":"m 499 540 q 510 528 510 540 l 510 433 q 499 422 510 422 l 343 422 q 332 410 332 422 l 332 257 q 328 249 332 253 q 319 244 326 244 l 226 244 q 218 249 221 244 q 214 257 214 253 l 214 410 q 203 422 214 422 l 49 422 q 36 433 36 422 l 36 528 q 49 540 36 540 l 203 540 q 214 551 214 540 l 214 706 q 226 718 214 718 l 319 718 q 332 706 332 718 l 332 551 q 343 540 332 540 l 499 540 z "},",":{"ha":263,"x_min":38,"x_max":225,"o":"m 221 182 q 225 174 225 178 l 225 10 q 218 -12 225 -1 q 206 -37 214 -22 q 188 -70 197 -53 q 170 -103 179 -87 q 156 -129 161 -119 q 135 -142 150 -142 l 72 -142 q 63 -137 67 -142 q 61 -126 60 -131 q 70 -102 65 -117 q 80 -72 75 -87 q 90 -42 85 -57 q 97 -17 94 -28 q 96 -7 100 -11 q 86 -1 92 -1 l 50 -1 q 40 1 46 -1 q 38 10 38 7 l 38 174 q 40 182 38 176 q 50 185 43 185 l 213 185 q 221 182 218 185 z "},"-":{"ha":540,"x_min":33,"x_max":507,"o":"m 46 422 q 33 433 33 422 l 33 528 q 46 540 33 540 l 494 540 q 507 528 507 540 l 507 433 q 494 422 507 422 l 46 422 z "},".":{"ha":263,"x_min":38,"x_max":225,"o":"m 221 182 q 225 174 225 178 l 225 10 q 221 1 225 6 q 213 -1 215 -1 l 50 -1 q 40 1 46 -1 q 38 10 38 7 l 38 174 q 40 182 38 176 q 50 185 43 185 l 213 185 q 221 182 218 185 z "},"/":{"ha":628,"x_min":69,"x_max":561,"o":"m 557 1022 q 558 1011 561 1017 q 519 901 547 981 q 455 716 492 821 q 377 496 418 611 q 301 278 336 381 q 239 102 265 176 q 204 6 213 28 q 193 -1 201 -1 l 82 -1 q 72 3 75 -1 q 69 14 69 7 q 96 89 78 38 q 138 210 114 140 q 190 362 161 279 q 247 529 218 444 q 304 694 276 614 q 356 842 332 775 q 395 955 379 908 q 417 1018 411 1001 q 428 1026 419 1026 l 547 1026 q 557 1022 553 1026 l 557 1022 z "},":":{"ha":276,"x_min":44,"x_max":232,"o":"m 219 185 q 228 182 225 185 q 232 174 232 178 l 232 10 q 228 1 232 6 q 219 -1 222 -1 l 57 -1 q 49 1 51 -1 q 44 10 44 6 l 44 174 q 49 182 44 178 q 57 185 50 185 l 219 185 m 228 647 q 232 639 232 646 l 232 476 q 228 468 232 471 q 219 464 224 464 l 57 464 q 49 468 51 464 q 44 476 44 471 l 44 639 q 49 647 44 646 q 57 651 51 651 l 219 651 q 228 647 224 651 z "},";":{"ha":276,"x_min":44,"x_max":232,"o":"m 219 185 q 228 182 225 185 q 232 174 232 178 l 232 10 q 225 -12 232 -1 q 213 -37 221 -22 q 195 -70 204 -53 q 177 -103 186 -87 q 163 -129 168 -119 q 142 -142 157 -142 l 79 -142 q 69 -137 74 -142 q 68 -126 67 -131 q 77 -102 72 -117 q 87 -72 82 -87 q 97 -42 92 -57 q 104 -17 101 -28 q 103 -7 107 -11 q 93 -1 99 -1 l 57 -1 q 49 1 51 -1 q 44 10 44 6 l 44 174 q 49 182 44 178 q 57 185 50 185 l 219 185 m 228 647 q 232 639 232 646 l 232 476 q 228 468 232 471 q 219 464 224 464 l 57 464 q 49 468 51 464 q 44 476 44 471 l 44 639 q 49 647 44 646 q 57 651 51 651 l 219 651 q 228 647 224 651 z "},"<":{"ha":407,"x_min":24,"x_max":375,"o":"m 182 397 q 201 364 188 388 q 233 310 215 340 q 271 244 250 279 q 310 176 292 208 q 345 115 329 143 q 371 71 361 88 q 371 60 375 67 q 361 54 369 54 l 274 54 q 264 58 268 54 q 239 94 257 68 q 198 153 221 119 q 149 226 175 188 q 99 298 122 264 q 57 358 75 332 q 31 396 39 385 q 31 410 24 403 q 57 448 39 421 q 99 510 75 475 q 149 582 122 544 q 198 653 175 619 q 239 714 221 688 q 264 750 257 740 q 274 754 268 754 l 361 754 q 372 749 368 754 q 372 736 375 743 q 346 693 363 721 q 310 632 329 665 q 271 563 292 599 q 233 497 250 528 q 201 443 215 467 q 182 410 188 419 q 182 397 178 404 l 182 397 z "},"=":{"ha":551,"x_min":39,"x_max":513,"o":"m 51 310 q 39 322 39 310 l 39 415 q 51 428 39 428 l 500 428 q 513 415 513 428 l 513 322 q 500 310 513 310 l 51 310 m 508 654 q 513 646 513 650 l 513 551 q 508 543 513 547 q 500 540 506 540 l 51 540 q 43 543 46 540 q 39 551 39 547 l 39 646 q 43 654 39 650 q 51 657 44 657 l 500 657 q 508 654 507 657 z "},">":{"ha":400,"x_min":32,"x_max":374,"o":"m 368 417 q 368 404 374 410 q 343 366 361 393 q 302 303 325 339 q 254 229 279 268 q 207 156 229 190 q 167 96 185 122 q 143 58 150 69 q 133 54 139 54 l 46 54 q 35 60 39 54 q 35 71 32 65 q 77 144 49 96 q 135 245 106 193 q 191 341 165 297 q 225 400 217 385 q 225 411 228 406 q 206 444 219 421 q 174 499 192 468 q 135 565 156 531 q 96 633 115 600 q 60 693 76 665 q 35 736 44 721 q 35 749 33 743 q 46 754 39 754 l 133 754 q 143 750 139 754 q 167 715 150 740 q 207 656 185 689 q 254 585 229 622 q 302 514 279 547 q 343 454 325 481 q 368 417 361 428 l 368 417 z "},"?":{"ha":485,"x_min":38,"x_max":443,"o":"m 160 -1 q 147 10 147 -1 l 147 126 q 160 139 147 139 l 274 139 q 286 126 286 139 l 286 10 q 274 -1 286 -1 l 160 -1 m 443 665 q 442 597 443 631 q 433 531 442 563 q 401 472 424 500 q 335 418 379 443 q 304 394 314 407 q 291 364 294 381 q 288 325 288 347 q 288 274 288 303 l 288 243 q 283 235 288 238 q 275 231 282 231 l 160 231 q 147 243 147 231 l 147 289 q 148 374 147 339 q 158 437 149 410 q 188 486 167 464 q 247 531 208 508 q 284 564 272 546 q 300 601 296 582 q 303 640 304 621 q 303 675 303 658 l 303 746 q 297 773 303 763 q 284 788 292 783 q 268 794 276 793 q 253 796 260 796 l 226 796 q 212 794 221 796 q 196 788 203 793 q 183 773 189 783 q 178 746 178 763 l 178 664 q 165 651 178 651 l 50 651 q 38 664 38 651 l 38 735 q 58 833 38 790 q 113 901 75 871 q 224 932 151 932 l 256 932 q 367 901 329 932 q 422 833 406 871 q 443 735 443 790 l 443 665 z "},"A":{"ha":607,"x_min":-1,"x_max":608,"o":"m 606 11 q 608 3 608 8 q 601 -1 607 -1 l 386 -1 q 379 3 382 -1 q 382 11 379 8 l 399 28 q 413 69 417 46 q 406 110 410 86 q 399 158 403 133 q 391 203 394 182 q 386 235 388 224 q 374 246 383 246 l 233 246 q 221 235 224 246 q 216 203 219 224 q 208 158 213 182 q 201 110 204 133 q 194 69 197 86 q 208 28 190 46 q 221 17 217 19 q 226 11 224 14 q 228 3 228 8 q 221 -1 226 -1 l 6 -1 q -1 3 1 -1 q 1 11 -1 8 l 40 50 q 54 75 50 60 q 66 138 58 96 q 82 228 74 181 q 99 322 90 276 q 111 393 107 367 q 97 435 115 417 l 72 460 q 69 465 69 463 q 72 469 69 467 q 92 490 82 479 l 125 524 q 139 549 138 536 q 150 610 143 569 q 165 697 157 651 q 182 787 174 743 q 194 856 190 831 q 181 897 199 879 q 165 913 174 906 q 158 919 163 917 q 157 928 154 924 q 164 932 160 932 l 447 932 q 454 928 453 932 q 453 919 457 924 l 426 893 q 414 851 410 876 q 426 783 418 826 q 442 694 433 740 q 457 608 450 649 q 468 549 464 568 q 482 524 469 536 q 498 508 489 517 q 515 490 507 499 q 535 469 525 479 q 538 465 538 467 q 535 460 538 463 l 510 435 q 496 393 492 417 q 508 322 500 367 q 526 228 517 276 q 542 138 535 181 q 554 75 550 96 q 567 50 557 61 l 606 11 m 357 385 q 360 394 361 389 q 350 456 357 414 q 335 547 343 499 q 320 642 328 596 q 308 717 313 689 q 304 721 308 721 q 299 717 299 721 q 287 642 294 689 q 272 547 279 596 q 257 456 264 499 q 247 394 250 414 q 250 385 246 389 q 258 381 253 381 l 349 381 q 357 385 356 381 z "},"B":{"ha":551,"x_min":28,"x_max":510,"o":"m 510 196 q 490 97 510 140 q 469 61 482 79 q 435 29 456 43 q 388 7 415 15 q 324 -1 360 -1 l 35 -1 q 28 3 31 -1 q 29 11 28 8 l 72 53 l 72 418 l 29 460 q 28 462 29 461 q 28 465 28 463 q 28 467 28 467 q 29 469 29 468 l 72 513 l 72 876 l 29 919 q 28 928 28 921 q 35 932 32 932 l 317 932 q 381 924 353 932 q 428 901 408 915 q 462 870 449 888 q 483 833 475 853 q 503 735 503 790 l 503 599 q 494 554 501 576 q 475 514 488 535 q 439 475 463 493 q 436 469 436 472 q 440 464 439 465 q 480 424 467 446 q 500 383 493 403 q 510 338 508 360 l 510 196 l 510 196 m 213 547 q 215 539 213 542 q 224 535 219 535 l 308 535 q 324 536 315 535 q 342 543 333 538 q 356 559 350 549 q 363 586 363 569 l 363 746 q 357 773 363 763 q 344 788 351 783 q 328 794 336 793 q 313 796 319 796 l 224 796 q 215 793 218 796 q 213 785 213 788 l 213 547 m 369 347 q 363 376 369 365 q 349 392 357 386 q 331 399 340 397 q 314 400 321 400 l 224 400 q 215 396 219 400 q 213 388 213 393 l 213 146 q 215 138 213 140 q 224 133 219 133 l 319 133 q 351 142 333 133 q 369 185 369 150 l 369 347 z "},"C":{"ha":515,"x_min":21,"x_max":486,"o":"m 486 197 q 467 99 486 142 q 412 30 450 61 q 300 -1 374 -1 l 251 -1 q 141 30 179 -1 q 86 99 103 61 q 65 197 65 142 l 65 397 q 51 431 65 418 q 42 441 47 436 q 33 450 38 446 q 24 460 28 456 q 21 465 21 463 q 24 469 21 467 q 33 479 28 474 q 42 489 38 483 q 51 499 47 494 q 65 532 65 513 l 65 735 q 86 833 65 790 q 141 901 103 871 q 251 932 179 932 l 300 932 q 412 901 374 932 q 467 833 450 871 q 486 735 486 790 l 486 669 q 481 658 486 660 q 456 646 472 654 q 421 628 439 638 q 385 610 403 619 q 357 596 368 601 q 350 596 354 593 q 347 601 347 599 l 347 746 q 342 773 347 763 q 328 788 336 783 q 313 794 321 793 q 297 796 304 796 l 254 796 q 240 794 249 796 q 224 788 231 793 q 211 773 217 783 q 206 746 206 763 l 206 532 q 219 499 206 513 l 249 469 l 249 460 q 239 450 244 456 q 230 442 235 447 q 219 432 225 438 q 206 397 206 415 l 206 185 q 211 157 206 167 q 224 142 217 147 q 240 135 231 136 q 254 133 249 133 l 297 133 q 329 142 311 133 q 347 185 347 150 l 347 329 q 350 335 347 332 q 357 335 354 338 q 382 322 367 331 q 414 306 397 314 q 447 289 431 297 q 474 275 464 281 q 486 254 486 269 l 486 197 z "},"D":{"ha":586,"x_min":28,"x_max":565,"o":"m 563 469 q 565 465 565 467 q 563 460 565 463 q 553 450 558 456 q 535 432 546 442 q 521 397 521 418 l 521 196 q 500 97 521 140 q 478 61 492 79 q 445 29 465 43 q 398 7 425 15 q 333 -1 371 -1 l 35 -1 q 28 3 31 -1 q 31 11 28 8 l 58 39 q 72 72 72 53 l 72 397 q 58 432 72 418 l 40 450 q 31 460 35 456 q 28 465 28 463 q 31 469 28 467 q 40 479 35 474 q 49 489 44 483 q 58 499 54 494 q 72 532 72 511 l 72 857 q 58 890 72 878 q 49 901 54 896 q 40 910 44 906 q 31 919 35 915 q 28 928 28 921 q 35 932 32 932 l 333 932 q 445 901 407 932 q 500 833 483 871 q 521 735 521 790 l 521 532 q 535 499 521 511 q 545 489 540 494 q 553 479 550 483 q 563 469 558 474 m 381 746 q 375 773 381 763 q 362 788 369 783 q 346 794 354 793 q 331 796 338 796 l 224 796 q 215 793 218 796 q 213 785 213 788 l 213 146 q 215 138 213 140 q 224 133 219 133 l 331 133 q 363 142 344 133 q 381 185 381 150 l 381 746 z "},"E":{"ha":506,"x_min":28,"x_max":472,"o":"m 225 796 q 213 785 213 796 l 213 544 q 225 533 213 533 l 344 533 q 378 547 364 533 q 389 558 383 553 q 399 567 394 563 q 408 578 403 572 q 417 579 414 581 q 421 572 421 578 l 421 357 q 417 351 421 354 q 408 353 413 349 l 376 385 q 343 399 363 399 l 225 399 q 217 394 219 399 q 213 386 213 393 l 213 146 q 217 138 213 140 q 225 133 219 133 l 394 133 q 429 147 413 133 q 440 158 435 153 q 450 168 444 164 q 461 179 456 174 q 468 181 463 183 q 472 174 472 179 l 472 10 q 461 -1 472 -1 l 35 -1 q 28 3 31 -1 q 31 11 28 8 l 60 40 q 74 74 74 54 l 74 397 q 60 431 74 417 l 31 460 q 28 465 28 463 q 31 469 28 467 l 60 499 q 74 533 74 515 l 74 857 q 60 890 74 876 l 31 919 q 28 928 28 921 q 35 932 31 932 l 461 932 q 472 919 472 932 l 472 757 q 468 750 472 753 q 461 751 464 749 q 450 763 456 757 q 440 772 446 767 q 429 782 435 778 q 396 796 417 796 l 225 796 z "},"F":{"ha":472,"x_min":28,"x_max":454,"o":"m 451 928 q 454 919 454 925 l 454 757 q 450 750 454 753 q 442 751 447 749 q 432 763 436 757 q 422 772 428 767 q 411 782 417 778 q 378 796 399 796 l 225 796 q 217 793 219 796 q 214 785 214 788 l 214 528 q 217 519 214 525 q 225 515 221 515 l 339 515 q 372 529 358 515 l 404 561 q 411 563 408 565 q 417 556 417 560 l 417 342 q 411 335 417 338 q 404 336 407 331 q 393 347 399 342 q 383 357 389 351 q 372 367 378 363 q 339 381 360 381 l 225 381 q 214 369 214 381 l 214 72 q 228 39 214 53 l 256 11 q 258 3 258 8 q 251 -1 257 -1 l 35 -1 q 28 3 31 -1 q 31 11 28 8 l 60 40 q 74 74 74 54 l 74 396 q 60 431 74 414 l 31 460 q 28 465 28 463 q 31 469 28 467 q 40 481 35 475 l 60 500 q 74 533 74 514 l 74 856 q 60 889 74 875 q 50 900 56 894 q 40 910 44 906 q 31 919 35 914 q 28 928 28 921 q 35 932 32 932 l 443 932 q 451 928 447 932 z "},"G":{"ha":565,"x_min":21,"x_max":547,"o":"m 544 526 q 543 518 547 522 l 513 488 q 499 454 499 475 l 499 196 q 479 97 499 140 q 458 61 471 79 q 425 29 444 43 q 378 7 406 15 q 314 -1 350 -1 l 251 -1 q 188 7 215 -1 q 140 29 160 15 q 106 61 119 43 q 85 97 93 79 q 65 196 65 140 l 65 399 q 51 432 65 418 l 24 460 q 21 465 21 463 q 24 469 21 467 q 33 479 28 474 l 51 497 q 65 532 65 514 l 65 735 q 85 833 65 790 q 140 901 101 871 q 251 932 179 932 l 314 932 q 378 924 350 932 q 425 901 406 915 q 458 870 444 888 q 479 833 471 853 q 499 735 499 790 l 499 678 q 492 667 499 671 q 467 654 483 663 q 433 637 451 646 q 398 619 415 628 q 371 604 381 610 q 367 603 368 603 q 364 604 365 604 q 360 611 360 607 l 360 746 q 354 773 360 763 q 341 788 349 783 q 324 794 333 793 q 308 796 315 796 l 254 796 q 239 794 247 796 q 223 788 231 793 q 210 773 215 783 q 204 746 204 763 l 204 185 q 222 142 204 150 q 254 133 240 133 l 308 133 q 341 142 322 133 q 360 185 360 150 l 360 383 q 349 394 360 394 l 275 394 q 269 397 272 394 q 268 404 268 400 q 278 431 272 414 q 291 467 285 449 q 303 502 297 486 q 311 525 308 518 q 318 531 311 531 l 538 531 q 544 526 540 531 z "},"H":{"ha":583,"x_min":28,"x_max":554,"o":"m 524 40 l 553 11 q 554 3 554 8 q 547 -1 553 -1 l 332 -1 q 325 3 328 -1 q 328 11 325 8 l 356 39 q 369 72 369 53 l 369 383 q 357 396 369 396 l 224 396 q 215 392 219 396 q 213 383 213 386 l 213 72 q 226 39 213 53 l 256 11 q 257 3 257 8 q 250 -1 256 -1 l 35 -1 q 28 3 31 -1 q 31 11 28 8 l 58 39 q 72 72 72 53 l 72 397 q 58 432 72 415 l 31 460 q 28 465 28 463 q 31 469 28 467 q 40 479 35 474 q 49 489 44 483 q 58 499 54 494 q 72 532 72 513 l 72 857 q 58 892 72 875 l 40 910 q 31 919 35 915 q 28 928 28 921 q 35 932 31 932 l 250 932 q 257 928 256 932 q 256 919 257 921 l 226 890 q 213 857 213 878 l 213 542 q 215 533 213 539 q 224 531 221 531 l 357 531 q 369 542 369 531 l 369 858 q 356 892 369 875 l 328 919 q 325 928 325 921 q 332 932 328 932 l 547 932 q 554 928 553 932 q 553 919 554 921 l 524 890 q 510 857 510 878 l 510 533 q 524 499 510 513 l 553 469 q 554 465 554 468 q 553 460 554 461 l 524 431 q 510 397 510 418 l 510 74 q 524 40 510 53 z "},"I":{"ha":285,"x_min":28,"x_max":257,"o":"m 226 39 q 237 30 232 35 q 246 21 242 25 q 256 11 251 15 q 257 3 257 8 q 250 -1 256 -1 l 35 -1 q 28 3 31 -1 q 31 11 28 8 l 58 39 q 72 72 72 53 l 72 397 q 58 432 72 418 l 31 460 q 28 465 28 463 q 31 469 28 467 q 40 479 35 474 q 49 489 44 483 q 58 499 54 494 q 72 532 72 511 l 72 857 q 58 890 72 878 q 49 901 54 896 q 40 910 44 906 q 31 919 35 915 q 28 928 28 921 q 35 932 31 932 l 250 932 q 257 928 256 932 q 256 919 257 921 l 226 890 q 213 857 213 876 l 213 532 q 226 499 213 513 l 256 469 l 256 460 q 246 450 251 456 q 237 442 242 447 q 226 432 232 438 q 213 397 213 415 l 213 72 q 226 39 213 56 z "},"J":{"ha":478,"x_min":1,"x_max":454,"o":"m 450 469 q 453 465 453 467 q 450 460 453 463 l 422 432 q 408 399 408 418 l 408 197 q 389 99 408 142 q 367 63 381 81 q 334 30 354 44 q 286 7 314 15 q 222 -1 258 -1 l 188 -1 q 77 30 115 -1 q 22 99 39 61 q 1 197 1 142 l 1 254 q 14 275 1 268 q 41 289 25 281 q 74 306 57 297 q 106 322 90 314 q 131 335 121 331 q 138 335 135 338 q 142 329 142 333 l 142 185 q 147 157 142 167 q 160 142 153 147 q 176 135 167 136 q 190 133 185 133 l 218 133 q 250 142 232 133 q 268 185 268 150 l 268 397 q 254 431 268 418 l 225 460 q 224 465 224 461 q 225 469 224 468 q 235 479 229 475 q 244 490 239 485 q 254 500 250 494 q 268 533 268 513 l 268 857 q 254 890 268 876 l 225 919 q 224 928 221 924 q 231 932 228 932 l 444 932 q 451 928 447 932 q 450 919 454 924 l 422 892 q 408 858 408 878 l 408 532 q 422 497 408 514 q 440 479 433 489 q 450 469 446 474 z "},"K":{"ha":579,"x_min":28,"x_max":585,"o":"m 582 11 q 583 3 585 6 q 576 -1 582 -1 l 338 -1 q 332 3 332 -1 q 333 11 329 7 l 346 24 q 354 78 369 47 q 328 133 344 100 q 297 200 313 167 q 267 262 281 233 q 247 303 254 290 q 243 306 247 306 q 239 303 242 306 l 214 253 q 213 243 213 250 l 213 74 q 226 39 213 53 q 237 30 232 35 q 246 21 242 25 q 256 11 251 15 q 257 3 257 8 q 250 -1 256 -1 l 35 -1 q 28 3 31 -1 q 31 11 28 8 l 58 39 q 72 72 72 53 l 72 399 q 58 432 72 415 l 31 460 q 28 465 28 463 q 31 469 28 467 q 40 479 35 474 q 49 489 44 483 q 58 499 54 494 q 72 532 72 513 l 72 857 q 58 892 72 875 l 40 910 q 31 919 35 915 q 28 928 28 921 q 35 932 31 932 l 250 932 q 257 928 256 932 q 256 919 257 921 l 226 890 q 213 857 213 878 l 213 561 q 215 556 213 558 q 221 560 221 556 q 247 621 231 582 q 282 703 264 660 q 317 787 300 746 q 344 853 335 828 q 348 881 350 867 q 335 906 346 894 q 329 910 332 908 q 324 915 326 913 q 319 919 321 918 q 318 928 315 924 q 325 932 321 932 l 564 932 q 569 928 569 932 q 568 919 572 922 q 550 900 558 910 l 521 871 q 511 858 515 868 q 476 787 503 840 q 419 671 449 733 q 362 553 389 608 q 324 475 335 497 q 324 454 319 465 q 346 410 331 440 q 380 343 361 381 q 419 265 399 306 q 458 188 440 225 q 491 124 476 151 q 511 85 506 96 q 519 72 514 79 q 536 57 526 67 q 557 36 546 47 q 582 11 568 24 z "},"L":{"ha":435,"x_min":28,"x_max":439,"o":"m 435 182 q 439 176 439 182 l 439 10 q 435 1 439 4 q 426 -1 431 -1 l 35 -1 q 28 3 31 -1 q 31 11 28 8 l 58 39 q 72 74 72 53 l 72 399 q 58 432 72 418 l 31 460 q 28 465 28 463 q 31 471 28 468 l 58 499 q 72 532 72 513 l 72 857 q 58 892 72 878 l 40 910 q 31 919 35 915 q 28 928 28 922 q 35 932 31 932 l 250 932 q 257 928 256 932 q 256 919 257 922 q 246 910 251 915 q 237 901 242 906 q 226 892 232 896 q 213 857 213 875 l 213 532 q 226 499 213 515 q 237 490 232 494 q 246 481 242 485 q 256 471 251 475 l 256 460 q 246 450 251 456 q 237 442 242 447 q 226 432 232 438 q 213 399 213 415 l 213 146 q 224 133 213 133 l 360 133 q 393 147 379 133 l 426 181 q 435 182 431 185 z "},"M":{"ha":722,"x_min":28,"x_max":696,"o":"m 663 39 q 673 30 668 35 q 682 21 678 25 q 692 11 688 15 q 693 3 696 7 q 686 -1 692 -1 l 472 -1 q 465 3 468 -1 q 467 11 464 6 q 476 21 471 15 q 486 30 481 25 q 496 39 492 35 q 510 72 510 56 l 510 489 q 506 493 510 493 q 500 490 500 493 q 478 420 492 464 q 451 332 465 376 q 426 250 438 288 q 410 197 414 213 q 399 189 408 189 l 321 189 q 310 197 313 189 q 294 250 306 213 q 269 332 282 288 q 242 420 256 376 q 221 492 229 464 q 217 494 221 499 q 213 490 213 494 l 213 74 q 226 39 213 53 l 254 11 q 257 3 257 8 q 250 -1 256 -1 l 35 -1 q 28 3 31 -1 q 31 11 28 8 l 58 39 q 72 72 72 56 l 72 399 q 58 432 72 415 l 31 460 q 28 465 28 463 q 31 471 28 468 l 58 499 q 72 532 72 513 l 72 857 q 58 892 72 875 l 31 919 q 28 928 28 922 q 35 932 31 932 l 250 932 q 257 928 256 932 q 254 919 257 922 q 250 914 253 917 l 239 903 q 226 857 219 885 q 244 797 233 835 q 267 716 254 760 q 294 625 281 672 q 319 535 307 578 q 342 460 332 493 q 357 408 351 426 q 361 406 357 406 q 365 408 365 406 q 381 460 371 426 q 402 538 390 494 q 428 627 414 581 q 453 718 442 674 q 476 799 465 763 q 493 858 486 836 q 481 906 500 886 l 467 919 q 465 928 464 925 q 472 932 468 932 l 686 932 q 693 928 692 932 q 692 919 696 924 l 663 890 q 649 857 649 876 l 649 532 q 663 499 649 515 q 673 490 668 494 q 682 481 678 485 q 692 471 688 475 q 694 465 694 468 q 692 460 694 463 q 682 450 688 456 q 673 442 678 447 q 663 432 668 438 q 649 397 649 415 l 649 74 q 663 39 649 56 z "},"N":{"ha":614,"x_min":28,"x_max":586,"o":"m 554 39 q 565 30 560 35 q 574 21 569 25 q 583 11 579 15 q 585 3 586 6 q 578 -1 583 -1 l 363 -1 q 357 3 360 -1 q 358 11 354 7 l 375 28 q 386 76 396 49 q 365 138 378 100 q 336 221 351 175 q 303 315 321 267 q 271 408 286 364 q 243 490 256 453 q 222 550 231 528 q 217 554 221 554 q 213 549 213 553 l 213 72 q 226 39 213 56 l 254 11 q 257 3 257 8 q 250 -1 256 -1 l 35 -1 q 28 3 31 -1 q 31 11 28 8 q 40 21 35 15 q 49 31 44 25 q 58 40 54 36 q 72 74 72 53 l 72 397 q 58 432 72 418 l 31 460 q 28 465 28 463 q 31 471 28 468 l 58 499 q 72 533 72 513 l 72 857 q 58 890 72 878 q 49 901 54 896 q 40 910 44 906 q 31 919 35 915 q 28 928 28 922 q 35 932 31 932 l 250 932 q 257 928 256 932 q 254 919 257 922 l 251 917 q 240 868 231 896 q 260 808 247 846 q 286 726 272 771 q 316 633 300 682 q 346 540 332 585 q 372 458 360 496 q 392 397 385 419 q 397 393 394 393 q 401 399 401 397 l 401 857 q 388 890 401 876 l 358 919 q 357 928 354 924 q 363 932 360 932 l 578 932 q 585 928 583 932 q 583 919 586 925 q 574 910 579 915 q 565 902 569 907 q 554 892 560 897 q 540 858 540 875 l 540 532 q 554 499 540 513 q 565 490 560 494 q 574 481 569 485 q 583 471 579 475 q 585 465 585 469 q 583 460 585 461 q 574 450 579 456 q 565 442 569 447 q 554 432 560 438 q 540 399 540 418 l 540 72 q 554 39 540 56 z "},"O":{"ha":579,"x_min":21,"x_max":558,"o":"m 556 469 q 558 465 558 467 q 556 460 558 463 l 528 432 q 514 397 514 418 l 514 196 q 493 97 514 140 q 472 61 485 79 q 438 29 458 43 q 391 7 418 15 q 326 -1 364 -1 l 251 -1 q 188 7 215 -1 q 141 29 161 15 q 108 61 121 43 q 86 97 94 79 q 65 196 65 140 l 65 397 q 51 432 65 418 l 24 460 q 21 465 21 463 q 24 469 21 467 q 33 479 28 474 q 42 489 38 483 q 51 499 47 494 q 65 532 65 511 l 65 735 q 86 833 65 790 q 141 901 103 871 q 251 932 179 932 l 326 932 q 438 901 400 932 q 493 833 476 871 q 514 735 514 790 l 514 532 q 528 499 514 511 q 538 489 533 494 q 546 479 543 483 q 556 469 551 474 m 374 746 q 368 773 374 763 q 355 788 363 783 q 339 794 347 793 q 324 796 331 796 l 254 796 q 240 794 249 796 q 224 788 231 793 q 211 773 217 783 q 206 746 206 763 l 206 185 q 211 157 206 167 q 224 142 217 147 q 240 135 231 136 q 254 133 249 133 l 324 133 q 356 142 338 133 q 374 185 374 150 l 374 746 z "},"P":{"ha":522,"x_min":28,"x_max":501,"o":"m 501 539 q 482 440 501 483 q 460 404 474 422 q 427 372 447 386 q 379 349 407 357 q 315 340 351 340 l 224 340 q 215 336 219 340 q 213 328 213 333 l 213 72 q 226 39 213 53 l 254 11 q 257 3 257 8 q 250 -1 256 -1 l 35 -1 q 28 3 31 -1 q 31 11 28 8 l 58 39 q 72 72 72 53 l 72 397 q 58 432 72 415 l 31 460 q 28 465 28 463 q 31 469 28 467 q 40 479 35 474 q 49 489 44 483 q 58 499 54 494 q 72 532 72 513 l 72 857 q 58 890 72 876 q 49 901 54 896 q 40 910 44 906 q 31 919 35 915 q 28 928 28 921 q 35 932 32 932 l 315 932 q 379 924 351 932 q 427 901 407 915 q 460 870 447 888 q 482 833 474 853 q 501 735 501 790 l 501 539 m 363 746 q 357 773 363 763 q 344 788 351 783 q 328 794 336 793 q 313 796 319 796 l 224 796 q 215 793 218 796 q 213 785 213 788 l 213 488 q 215 478 213 483 q 224 475 221 475 l 313 475 q 328 476 319 475 q 344 483 336 478 q 357 499 351 489 q 363 526 363 510 l 363 746 z "},"Q":{"ha":579,"x_min":21,"x_max":558,"o":"m 556 469 q 558 465 558 467 q 556 460 558 463 q 546 450 551 456 q 528 432 539 442 q 514 397 514 418 l 514 196 q 500 113 514 151 q 462 49 489 81 q 382 4 435 17 q 389 -18 386 -7 q 396 -40 392 -29 q 403 -60 400 -50 q 426 -97 408 -79 l 468 -139 q 469 -147 471 -144 q 463 -151 468 -151 l 249 -151 q 242 -147 244 -151 q 243 -139 239 -143 l 256 -126 q 267 -78 275 -107 q 258 -53 263 -67 q 250 -28 253 -39 q 240 -1 244 -15 q 136 33 172 1 q 85 100 100 64 q 65 196 65 143 l 65 397 q 51 432 65 418 l 33 450 q 24 460 28 456 q 21 465 21 463 q 24 469 21 467 q 33 479 28 474 q 42 489 38 483 q 51 499 47 494 q 65 532 65 511 l 65 735 q 86 833 65 790 q 141 901 103 871 q 251 932 179 932 l 326 932 q 438 901 400 932 q 493 833 476 871 q 514 735 514 790 l 514 532 q 528 499 514 511 q 538 489 533 494 q 546 479 543 483 q 556 469 551 474 m 374 746 q 368 773 374 763 q 355 788 363 783 q 339 794 347 793 q 324 796 331 796 l 254 796 q 240 794 249 796 q 224 788 231 793 q 211 773 217 783 q 206 746 206 763 l 206 185 q 211 157 206 167 q 224 142 217 147 q 240 135 231 136 q 254 133 249 133 l 324 133 q 356 142 338 133 q 374 185 374 150 l 374 746 z "},"R":{"ha":567,"x_min":28,"x_max":556,"o":"m 551 11 q 553 3 556 7 q 547 -1 551 -1 l 332 -1 q 325 3 328 -1 q 326 11 324 6 l 361 44 q 328 181 343 118 q 315 235 322 208 q 303 286 308 263 q 293 328 297 310 q 286 357 289 347 q 274 367 283 367 l 224 367 q 213 354 213 367 l 213 53 l 254 11 q 257 3 257 8 q 250 -1 256 -1 l 35 -1 q 28 3 31 -1 q 31 11 28 8 l 72 53 l 72 418 l 31 460 q 28 465 28 463 q 31 469 28 467 l 72 513 l 72 857 q 58 890 72 876 q 49 901 54 896 q 40 910 44 906 q 31 919 35 915 q 28 928 28 921 q 35 932 32 932 l 315 932 q 379 924 351 932 q 427 901 407 915 q 460 870 447 888 q 482 833 474 853 q 501 735 501 790 l 501 565 q 494 504 501 535 q 473 450 488 478 q 431 400 458 422 q 426 388 425 396 q 444 315 432 368 q 472 203 457 261 q 508 54 489 135 l 551 11 m 363 746 q 357 773 363 763 q 344 788 351 783 q 328 794 336 793 q 313 796 319 796 l 224 796 q 215 793 218 796 q 213 785 213 788 l 213 513 q 215 504 213 510 q 224 501 221 501 l 313 501 q 328 503 319 501 q 344 510 336 504 q 357 526 351 515 q 363 553 363 536 l 363 746 z "},"S":{"ha":486,"x_min":32,"x_max":453,"o":"m 453 196 q 433 97 453 140 q 412 61 425 79 q 378 29 399 43 q 331 7 358 15 q 267 -1 303 -1 l 218 -1 q 108 30 146 -1 q 53 99 69 61 q 32 197 32 142 l 32 217 q 39 228 32 224 q 64 240 47 232 q 99 258 81 249 q 134 276 117 268 q 161 290 151 285 q 168 290 165 293 q 172 283 172 289 l 172 185 q 178 157 172 167 q 190 142 183 147 q 206 135 197 136 q 221 133 215 133 l 264 133 q 279 135 271 133 q 294 142 288 136 q 307 157 301 147 q 313 185 313 167 l 313 272 q 313 300 313 288 q 311 324 314 313 q 299 349 308 336 q 269 375 290 361 q 251 381 264 381 q 235 378 244 379 q 218 375 226 378 q 197 372 208 374 q 192 372 197 372 q 189 378 189 375 l 183 408 q 163 440 181 429 q 99 485 124 464 q 62 531 75 506 q 44 588 49 556 q 39 665 39 619 l 39 735 q 58 833 39 790 q 114 901 75 871 q 225 932 153 932 l 256 932 q 319 924 292 932 q 367 901 347 915 q 401 870 388 888 q 422 833 414 853 q 442 735 442 790 l 442 711 q 436 700 442 706 q 412 688 428 696 q 377 670 396 679 q 342 652 358 661 q 314 638 325 643 q 307 638 314 638 q 304 644 304 640 l 304 746 q 299 773 304 763 q 285 788 293 783 q 269 794 278 793 q 253 796 260 796 l 228 796 q 212 794 221 796 q 195 788 203 793 q 182 773 188 783 q 176 746 176 763 l 176 675 q 176 639 176 654 q 179 610 175 624 q 196 583 183 596 q 233 553 208 569 q 249 549 240 549 q 266 551 256 550 q 286 554 276 553 q 310 558 297 557 q 315 557 313 558 q 317 555 317 556 q 318 553 317 554 q 319 542 319 547 q 322 530 321 536 q 324 517 322 524 q 344 485 328 497 q 392 449 372 467 q 426 408 413 431 q 446 356 439 385 q 453 289 453 328 l 453 196 z "},"T":{"ha":457,"x_min":4,"x_max":451,"o":"m 449 928 q 451 919 451 925 l 451 757 q 447 750 451 753 q 439 751 444 749 q 429 763 433 757 q 419 772 425 767 q 408 782 414 778 q 375 796 396 796 l 310 796 q 297 785 297 796 l 297 532 q 311 499 297 513 l 340 469 q 343 465 343 467 q 340 460 343 463 q 331 450 336 456 q 322 441 326 446 q 311 432 317 436 q 297 397 297 415 l 297 72 q 311 39 297 56 q 322 30 317 35 q 331 21 326 25 q 340 11 336 15 q 342 3 344 7 q 335 -1 340 -1 l 121 -1 q 114 3 117 -1 q 115 11 113 6 q 125 21 119 15 q 135 30 129 25 q 144 39 140 35 q 158 72 158 56 l 158 397 q 144 432 158 415 q 135 441 140 436 q 125 450 129 446 q 115 460 119 456 q 114 465 114 461 q 115 469 114 468 l 144 499 q 158 532 158 513 l 158 785 q 146 796 158 796 l 81 796 q 47 782 60 796 q 37 772 42 778 q 26 763 32 767 q 17 751 22 757 q 8 750 11 749 q 4 757 4 753 l 4 919 q 17 932 4 932 l 440 932 q 449 928 444 932 z "},"U":{"ha":585,"x_min":24,"x_max":563,"o":"m 558 469 q 561 465 561 467 q 558 460 561 463 l 531 432 q 517 397 517 418 l 517 196 q 496 97 517 140 q 474 61 488 79 q 441 29 461 43 q 394 7 421 15 q 329 -1 367 -1 l 254 -1 q 191 7 218 -1 q 144 29 164 15 q 110 61 124 43 q 89 97 97 79 q 68 196 68 140 l 68 397 q 54 432 68 418 l 26 460 q 24 465 24 463 q 26 469 24 467 q 36 479 31 474 q 45 489 40 483 q 54 499 50 494 q 68 532 68 511 l 68 857 q 54 890 68 878 q 45 901 50 896 q 36 910 40 906 q 26 919 31 915 q 24 928 24 921 q 31 932 26 932 l 246 932 q 253 928 251 932 q 251 919 253 921 l 222 890 q 208 857 208 876 l 208 185 q 214 157 208 167 q 226 142 219 147 q 242 135 233 136 q 257 133 251 133 l 326 133 q 358 142 340 133 q 376 185 376 150 l 376 857 q 363 890 376 876 l 333 919 q 332 928 329 924 q 339 932 335 932 l 554 932 q 560 928 560 932 q 558 919 563 922 q 549 910 554 915 q 541 901 546 906 q 531 890 536 896 q 517 857 517 878 l 517 532 q 531 499 517 511 q 541 489 536 494 q 549 479 546 483 q 558 469 554 474 z "},"V":{"ha":604,"x_min":-3,"x_max":607,"o":"m 607 928 q 604 919 607 921 q 590 906 597 913 q 565 881 579 892 q 553 854 556 871 q 541 792 549 833 q 524 702 533 750 q 507 609 515 654 q 494 538 499 564 q 508 496 490 514 q 517 487 513 492 q 525 478 522 482 q 533 469 529 474 q 536 465 536 467 q 533 460 536 463 l 481 407 q 467 381 469 396 q 456 320 463 361 q 440 233 449 279 q 424 144 432 188 q 411 75 415 100 q 425 33 407 51 l 440 18 q 447 11 443 14 q 449 3 450 6 q 442 -1 447 -1 l 158 -1 q 151 3 154 -1 q 153 11 150 6 q 161 19 157 15 q 170 28 165 24 q 179 36 175 32 q 192 79 196 53 q 180 147 188 104 q 164 235 172 190 q 149 321 156 281 q 138 381 142 361 q 124 407 136 396 l 71 460 q 68 465 68 463 q 71 469 68 467 q 79 478 75 474 q 88 487 83 482 q 96 496 92 492 q 110 538 114 514 q 97 609 106 564 q 81 702 89 654 q 65 792 72 750 q 53 854 57 833 q 39 881 47 872 q 26 892 33 886 q 13 906 19 899 q -1 919 6 913 q -3 928 -3 921 q 4 932 -1 932 l 219 932 q 226 928 225 932 q 225 919 226 921 q 219 914 222 917 q 207 901 214 910 q 193 860 189 883 q 206 783 197 833 q 224 671 214 733 q 244 540 233 608 q 266 409 256 472 q 285 294 276 346 q 297 213 293 242 q 303 208 297 208 q 307 213 307 208 q 319 294 311 242 q 338 409 328 346 q 360 540 349 472 q 381 671 371 608 q 399 783 390 733 q 411 860 407 833 q 397 901 415 883 q 392 908 394 906 q 386 914 389 911 q 381 919 383 917 q 378 928 378 921 q 385 932 381 932 l 600 932 q 607 928 606 932 z "},"W":{"ha":789,"x_min":3,"x_max":785,"o":"m 785 928 q 783 919 785 921 q 772 908 778 914 q 762 899 767 904 q 751 889 757 893 q 738 863 742 878 q 728 798 735 842 q 713 706 721 754 q 699 612 706 657 q 688 540 692 567 q 701 500 683 518 q 712 490 707 494 q 721 479 717 485 q 731 469 726 475 q 733 465 733 467 q 731 460 733 463 l 675 404 q 663 378 665 394 q 653 317 660 357 q 640 231 647 276 q 625 144 632 186 q 614 76 618 101 q 628 35 611 51 l 651 11 q 654 3 654 8 q 647 -1 653 -1 l 432 -1 q 425 3 428 -1 q 428 11 425 8 l 442 25 q 454 64 458 42 q 447 124 451 86 q 438 208 443 161 q 427 308 433 256 q 416 409 421 360 q 406 501 411 458 q 397 574 400 544 q 393 578 397 578 q 389 574 389 578 q 381 503 386 546 q 371 411 376 460 q 360 310 365 363 q 349 213 354 258 q 340 128 344 167 q 333 69 336 90 q 347 31 332 47 l 367 11 q 368 3 369 6 q 361 -1 367 -1 l 147 -1 q 140 3 143 -1 q 142 11 139 6 q 147 17 144 14 q 154 23 150 19 q 161 29 158 26 q 174 71 178 49 q 163 140 169 96 q 149 229 157 183 q 135 316 142 275 q 125 378 129 357 q 113 404 122 394 l 57 460 q 54 465 54 463 q 57 469 54 467 q 67 479 61 475 q 76 490 71 485 q 86 500 82 494 q 100 540 104 518 q 89 612 96 567 q 74 706 82 657 q 60 798 67 754 q 50 863 53 842 q 36 889 46 878 l 17 908 q 6 919 11 914 q 3 928 3 921 q 10 932 7 932 l 225 932 q 232 928 228 932 q 229 919 232 921 q 221 911 225 915 q 214 903 218 908 q 204 894 210 899 q 190 854 189 876 q 198 796 193 833 q 208 713 203 758 q 220 616 214 667 q 232 517 226 565 q 242 428 238 469 q 250 360 247 388 q 254 356 250 356 q 260 360 260 356 q 272 472 264 401 q 290 617 281 542 q 307 758 299 692 q 319 856 315 824 q 306 896 321 878 l 282 919 q 279 928 279 921 q 286 932 283 932 l 501 932 q 508 928 504 932 q 507 919 508 921 q 499 913 503 915 q 491 904 496 908 q 482 896 486 900 q 468 856 467 878 q 481 758 472 824 q 498 617 489 692 q 515 472 507 542 q 528 360 524 401 q 533 356 528 356 q 538 360 538 356 q 545 428 540 388 q 556 517 550 469 q 567 616 561 565 q 579 713 574 667 q 590 796 585 758 q 597 854 594 833 q 583 894 599 876 l 567 911 q 558 919 563 915 q 557 928 554 922 q 563 932 557 932 l 778 932 q 785 928 781 932 z "},"X":{"ha":560,"x_min":4,"x_max":557,"o":"m 514 49 q 538 25 526 39 q 553 11 546 18 q 554 3 556 6 q 547 -1 553 -1 l 332 -1 q 326 3 326 -1 q 328 11 324 7 l 347 31 q 358 78 368 51 q 341 134 351 100 q 320 204 331 168 q 300 272 310 240 q 285 321 290 304 q 281 324 282 324 q 275 321 278 324 q 260 272 269 304 q 239 204 250 240 q 217 134 228 168 q 200 78 207 100 q 199 52 196 65 q 213 29 203 39 l 231 11 q 233 3 233 8 q 226 -1 232 -1 l 11 -1 q 4 3 7 -1 q 7 11 4 8 l 44 49 q 57 68 53 57 q 76 126 63 85 q 107 213 90 167 q 139 306 124 260 q 164 378 154 351 q 165 403 168 390 q 151 426 163 417 q 140 439 146 433 q 131 449 135 444 q 119 460 125 454 q 117 465 117 463 q 119 469 117 467 l 154 506 q 165 554 174 525 q 142 624 157 581 q 111 714 126 668 q 82 799 96 760 q 63 856 68 839 q 51 875 57 869 l 24 903 q 7 919 15 911 q 4 928 4 921 q 11 932 8 932 l 226 932 q 233 928 229 932 q 231 919 233 921 q 226 914 229 917 l 215 903 q 203 856 196 883 q 220 800 210 833 q 241 731 231 767 q 260 665 251 696 q 275 617 269 633 q 281 614 278 614 q 285 617 282 614 q 299 665 290 633 q 319 731 308 696 q 340 799 329 765 q 357 854 350 832 q 357 880 360 867 q 344 901 354 893 q 339 908 342 906 q 333 914 336 911 q 328 919 331 917 q 326 928 324 922 q 332 932 326 932 l 547 932 q 554 928 550 932 q 553 919 557 924 l 510 876 q 497 858 501 868 q 478 801 492 842 q 449 715 464 761 q 418 625 433 669 q 393 554 403 581 q 404 504 385 526 q 417 492 411 499 q 428 481 422 486 q 439 469 433 475 q 442 465 442 467 q 439 460 442 463 q 429 449 433 454 q 419 439 424 444 q 407 426 414 433 q 393 403 396 417 q 394 378 390 390 q 419 306 404 351 q 451 213 435 260 q 483 126 468 167 q 503 68 497 85 q 514 49 506 58 z "},"Y":{"ha":532,"x_min":-10,"x_max":543,"o":"m 540 928 q 539 919 543 924 q 522 903 531 911 q 494 875 506 889 q 482 856 486 867 q 463 795 476 838 q 434 703 450 753 q 403 607 418 654 q 381 532 389 560 q 392 483 371 504 l 406 469 q 407 465 407 468 q 406 460 407 461 q 385 439 394 450 q 367 421 376 431 q 349 404 357 411 q 335 371 335 388 l 335 72 q 349 39 335 56 q 359 30 354 35 q 368 21 364 25 q 378 11 374 15 q 379 3 382 7 q 372 -1 378 -1 l 158 -1 q 151 3 154 -1 q 153 11 150 6 q 163 21 157 15 q 172 30 167 25 q 182 39 178 35 q 196 72 196 56 l 196 371 q 182 404 196 388 q 165 421 175 411 q 146 439 154 431 q 125 460 136 450 q 124 465 124 461 q 125 469 124 468 l 139 483 q 151 506 149 493 q 151 532 154 519 q 128 607 143 560 q 97 703 113 654 q 68 795 82 753 q 49 856 54 838 q 36 875 46 867 q 8 903 25 889 q -8 919 0 911 q -10 928 -10 921 q -3 932 -6 932 l 213 932 q 219 928 215 932 q 217 919 219 921 q 211 914 214 917 q 199 901 207 908 q 186 856 181 881 q 203 790 193 831 q 224 704 213 749 q 244 619 235 660 q 260 558 254 579 q 265 554 263 554 q 269 558 268 554 q 285 619 275 579 q 306 704 294 660 q 328 790 317 749 q 344 856 339 831 q 332 901 350 881 q 326 908 329 904 q 319 914 322 911 q 314 919 317 917 q 313 928 310 922 q 318 932 313 932 l 533 932 q 540 928 536 932 z "},"Z":{"ha":450,"x_min":25,"x_max":422,"o":"m 410 932 q 422 919 422 932 l 422 815 q 421 807 422 810 q 402 753 417 794 q 370 665 388 713 q 337 574 353 617 q 315 515 321 531 q 318 503 313 508 q 327 493 322 499 q 338 482 332 488 q 350 469 343 476 q 353 465 353 467 q 350 460 353 463 q 319 428 333 443 q 292 402 306 415 q 271 381 279 389 q 260 364 265 375 q 243 318 254 349 q 220 253 232 288 q 197 189 208 219 q 181 143 186 158 q 182 136 179 142 q 188 133 185 133 l 350 133 q 360 138 356 133 l 403 181 q 411 182 407 185 q 415 176 415 181 l 415 10 q 411 1 415 6 q 403 -1 408 -1 l 38 -1 q 28 1 33 -1 q 25 10 25 7 l 25 115 q 26 124 25 121 q 45 176 31 135 q 77 264 60 217 q 110 354 94 311 q 132 413 126 397 q 129 425 135 419 l 94 460 q 92 465 92 463 q 94 469 92 467 q 111 488 100 476 q 135 511 122 499 q 159 535 147 524 q 178 554 171 547 q 189 571 185 561 q 205 616 194 586 q 228 679 215 646 q 251 743 240 713 q 267 788 261 774 q 265 793 269 790 q 260 796 264 796 l 101 796 q 93 793 96 796 l 49 749 q 42 747 46 746 q 38 754 38 750 q 38 822 38 790 q 36 877 36 850 q 36 919 36 904 q 40 928 36 926 q 49 932 43 932 l 410 932 z "},"[":{"ha":321,"x_min":56,"x_max":293,"o":"m 207 926 q 196 915 196 926 l 196 14 q 207 3 196 3 l 281 3 q 289 -1 285 3 q 293 -10 293 -4 l 293 -121 q 281 -132 293 -132 l 68 -132 q 56 -121 56 -132 l 56 1050 q 68 1063 56 1063 l 281 1063 q 293 1050 293 1063 l 293 939 q 281 926 293 926 l 207 926 z "},"\\":{"ha":628,"x_min":69,"x_max":560,"o":"m 558 14 q 557 3 560 11 q 547 -1 553 -1 l 435 -1 q 424 6 426 -1 q 401 69 418 22 q 362 183 385 117 q 310 331 339 250 q 252 496 282 411 q 193 663 222 581 q 139 815 164 746 q 96 937 114 885 q 69 1011 78 989 q 72 1022 69 1018 q 82 1026 75 1026 l 201 1026 q 213 1018 208 1026 q 234 955 218 1001 q 273 842 250 908 q 324 694 296 775 q 381 529 353 614 q 438 362 410 444 q 491 210 467 279 q 533 89 515 140 q 558 14 550 38 l 558 14 z "},"]":{"ha":321,"x_min":28,"x_max":265,"o":"m 253 1063 q 265 1050 265 1063 l 265 -121 q 253 -132 265 -132 l 40 -132 q 28 -121 28 -132 l 28 -10 q 31 -1 28 -4 q 40 3 35 3 l 113 3 q 125 14 125 3 l 125 915 q 113 926 125 926 l 40 926 q 28 939 28 926 l 28 1050 q 40 1063 28 1063 l 253 1063 z "},"_":{"ha":656,"x_min":29,"x_max":625,"o":"m 622 76 q 625 68 625 74 l 625 10 q 622 1 625 4 q 614 -1 617 -1 l 42 -1 q 33 1 36 -1 q 29 10 29 6 l 29 68 q 33 76 29 72 q 42 79 35 79 l 614 79 q 622 76 619 79 z "},"a":{"ha":607,"x_min":-1,"x_max":608,"o":"m 606 11 q 608 3 608 8 q 601 -1 607 -1 l 386 -1 q 379 3 382 -1 q 382 11 379 8 l 399 28 q 413 69 417 46 q 406 110 410 86 q 399 158 403 133 q 391 203 394 182 q 386 235 388 224 q 374 246 383 246 l 233 246 q 221 235 224 246 q 216 203 219 224 q 208 158 213 182 q 201 110 204 133 q 194 69 197 86 q 208 28 190 46 q 221 17 217 19 q 226 11 224 14 q 228 3 228 8 q 221 -1 226 -1 l 6 -1 q -1 3 1 -1 q 1 11 -1 8 l 40 50 q 54 75 50 60 q 66 138 58 96 q 82 228 74 181 q 99 322 90 276 q 111 393 107 367 q 97 435 115 417 l 72 460 q 69 465 69 463 q 72 469 69 467 q 92 490 82 479 l 125 524 q 139 549 138 536 q 150 610 143 569 q 165 697 157 651 q 182 787 174 743 q 194 856 190 831 q 181 897 199 879 q 165 913 174 906 q 158 919 163 917 q 157 928 154 924 q 164 932 160 932 l 447 932 q 454 928 453 932 q 453 919 457 924 l 426 893 q 414 851 410 876 q 426 783 418 826 q 442 694 433 740 q 457 608 450 649 q 468 549 464 568 q 482 524 469 536 q 498 508 489 517 q 515 490 507 499 q 535 469 525 479 q 538 465 538 467 q 535 460 538 463 l 510 435 q 496 393 492 417 q 508 322 500 367 q 526 228 517 276 q 542 138 535 181 q 554 75 550 96 q 567 50 557 61 l 606 11 m 357 385 q 360 394 361 389 q 350 456 357 414 q 335 547 343 499 q 320 642 328 596 q 308 717 313 689 q 304 721 308 721 q 299 717 299 721 q 287 642 294 689 q 272 547 279 596 q 257 456 264 499 q 247 394 250 414 q 250 385 246 389 q 258 381 253 381 l 349 381 q 357 385 356 381 z "},"b":{"ha":551,"x_min":28,"x_max":510,"o":"m 510 196 q 490 97 510 140 q 469 61 482 79 q 435 29 456 43 q 388 7 415 15 q 324 -1 360 -1 l 35 -1 q 28 3 31 -1 q 31 11 28 8 l 72 53 l 72 418 l 31 460 q 28 465 28 463 q 31 469 28 467 l 72 513 l 72 876 l 31 919 q 28 928 28 921 q 35 932 32 932 l 317 932 q 381 924 353 932 q 428 901 408 915 q 462 870 449 888 q 483 833 475 853 q 503 735 503 790 l 503 599 q 494 554 501 576 q 475 514 488 535 q 439 475 463 493 q 436 469 436 472 q 440 464 436 467 q 480 424 467 446 q 500 383 493 403 q 510 338 508 360 l 510 196 m 213 547 q 215 539 213 542 q 224 535 219 535 l 308 535 q 324 536 315 535 q 342 543 333 538 q 356 559 350 549 q 363 586 363 569 l 363 746 q 357 773 363 763 q 344 788 351 783 q 328 794 336 793 q 313 796 319 796 l 224 796 q 215 793 218 796 q 213 785 213 788 l 213 547 m 369 347 q 363 376 369 365 q 349 392 357 386 q 331 399 340 397 q 314 400 321 400 l 224 400 q 215 396 219 400 q 213 388 213 393 l 213 146 q 215 138 213 140 q 224 133 219 133 l 319 133 q 351 142 333 133 q 369 185 369 150 l 369 347 z "},"c":{"ha":515,"x_min":21,"x_max":486,"o":"m 486 197 q 467 99 486 142 q 412 30 450 61 q 300 -1 374 -1 l 251 -1 q 141 30 179 -1 q 86 99 103 61 q 65 197 65 142 l 65 397 q 51 431 65 418 q 42 441 47 436 q 33 450 38 446 q 24 460 28 456 q 21 465 21 463 q 24 469 21 467 q 33 479 28 474 q 42 489 38 483 q 51 499 47 494 q 65 532 65 513 l 65 735 q 86 833 65 790 q 141 901 103 871 q 251 932 179 932 l 300 932 q 412 901 374 932 q 467 833 450 871 q 486 735 486 790 l 486 669 q 481 658 486 660 q 456 646 472 654 q 421 628 439 638 q 385 610 403 619 q 357 596 368 601 q 350 596 354 593 q 347 601 347 599 l 347 746 q 342 773 347 763 q 328 788 336 783 q 313 794 321 793 q 297 796 304 796 l 254 796 q 240 794 249 796 q 224 788 231 793 q 211 773 217 783 q 206 746 206 763 l 206 532 q 219 499 206 513 l 249 469 l 249 460 q 239 450 244 456 q 230 442 235 447 q 219 432 225 438 q 206 397 206 415 l 206 185 q 211 157 206 167 q 224 142 217 147 q 240 135 231 136 q 254 133 249 133 l 297 133 q 329 142 311 133 q 347 185 347 150 l 347 329 q 350 335 347 332 q 357 335 354 338 q 382 322 367 331 q 414 306 397 314 q 447 289 431 297 q 474 275 464 281 q 486 254 486 269 l 486 197 z "},"d":{"ha":586,"x_min":28,"x_max":565,"o":"m 563 469 q 565 465 565 467 q 563 460 565 463 l 535 432 q 521 397 521 418 l 521 196 q 500 97 521 140 q 478 61 492 79 q 445 29 465 43 q 398 7 425 15 q 333 -1 371 -1 l 35 -1 q 28 3 31 -1 q 31 11 28 8 l 58 39 q 72 72 72 53 l 72 397 q 58 432 72 418 l 40 450 q 31 460 35 456 q 28 465 28 463 q 31 469 28 467 q 40 479 35 474 q 49 489 44 483 q 58 499 54 494 q 72 532 72 511 l 72 857 q 58 890 72 878 q 49 901 54 896 q 40 910 44 906 q 31 919 35 915 q 28 928 28 921 q 35 932 32 932 l 333 932 q 445 901 407 932 q 500 833 483 871 q 521 735 521 790 l 521 532 q 535 499 521 511 q 544 489 539 494 q 553 479 549 483 q 563 469 558 474 m 381 746 q 375 773 381 763 q 362 788 369 783 q 346 794 354 793 q 331 796 338 796 l 224 796 q 215 793 218 796 q 213 785 213 788 l 213 146 q 215 138 213 140 q 224 133 219 133 l 331 133 q 363 142 344 133 q 381 185 381 150 l 381 746 z "},"e":{"ha":506,"x_min":28,"x_max":472,"o":"m 225 796 q 213 785 213 796 l 213 544 q 225 533 213 533 l 344 533 q 378 547 364 533 q 389 558 383 553 q 399 567 394 563 q 408 578 403 572 q 417 579 414 581 q 421 572 421 578 l 421 357 q 417 351 421 354 q 408 353 413 349 l 376 385 q 343 399 363 399 l 225 399 q 217 394 219 399 q 213 386 213 393 l 213 146 q 217 138 213 140 q 225 133 219 133 l 394 133 q 429 147 413 133 q 440 158 435 153 q 450 168 444 164 q 461 179 456 174 q 468 181 463 183 q 472 174 472 179 l 472 10 q 461 -1 472 -1 l 35 -1 q 28 3 31 -1 q 31 11 28 8 l 60 40 q 74 74 74 54 l 74 397 q 60 431 74 417 l 31 460 q 28 465 28 463 q 31 469 28 467 l 60 499 q 74 533 74 515 l 74 857 q 60 890 74 876 l 31 919 q 28 928 28 921 q 35 932 31 932 l 461 932 q 472 919 472 932 l 472 757 q 468 750 472 753 q 461 751 464 749 q 450 763 456 757 q 440 772 446 767 q 429 782 435 778 q 396 796 417 796 l 225 796 z "},"f":{"ha":472,"x_min":28,"x_max":454,"o":"m 451 928 q 454 919 454 925 l 454 757 q 450 750 454 753 q 442 751 447 749 q 432 763 436 757 q 422 772 428 767 q 411 782 417 778 q 378 796 399 796 l 225 796 q 217 793 219 796 q 214 785 214 788 l 214 528 q 217 519 214 525 q 225 515 221 515 l 339 515 q 372 529 358 515 l 404 561 q 411 563 408 565 q 417 556 417 560 l 417 342 q 411 335 417 338 q 404 336 407 331 q 393 347 399 342 q 383 357 389 351 q 372 367 378 363 q 339 381 360 381 l 225 381 q 214 369 214 381 l 214 72 q 228 39 214 53 l 256 11 q 258 3 258 8 q 251 -1 257 -1 l 35 -1 q 28 3 31 -1 q 31 11 28 8 l 60 40 q 74 74 74 54 l 74 396 q 60 431 74 414 l 31 460 q 28 465 28 463 q 31 469 28 467 q 40 481 35 475 l 60 500 q 74 533 74 514 l 74 856 q 60 889 74 875 q 50 900 56 894 q 40 910 44 906 q 31 919 35 914 q 28 928 28 921 q 35 932 32 932 l 443 932 q 451 928 447 932 z "},"g":{"ha":565,"x_min":21,"x_max":547,"o":"m 544 526 q 543 518 547 522 l 513 488 q 499 454 499 475 l 499 196 q 479 97 499 140 q 458 61 471 79 q 425 29 444 43 q 378 7 406 15 q 314 -1 350 -1 l 251 -1 q 188 7 215 -1 q 140 29 160 15 q 106 61 119 43 q 85 97 93 79 q 65 196 65 140 l 65 399 q 51 432 65 418 l 24 460 q 21 465 21 463 q 24 469 21 467 q 33 479 28 474 l 51 497 q 65 532 65 514 l 65 735 q 85 833 65 790 q 140 901 101 871 q 251 932 179 932 l 314 932 q 378 924 350 932 q 425 901 406 915 q 458 870 444 888 q 479 833 471 853 q 499 735 499 790 l 499 678 q 492 667 499 671 q 467 654 483 663 q 433 637 451 646 q 398 619 415 628 q 371 604 381 610 q 367 603 368 603 q 364 604 365 604 q 360 611 360 607 l 360 746 q 354 773 360 763 q 341 788 349 783 q 324 794 333 793 q 308 796 315 796 l 254 796 q 239 794 247 796 q 223 788 231 793 q 210 773 215 783 q 204 746 204 763 l 204 185 q 222 142 204 150 q 254 133 240 133 l 308 133 q 341 142 322 133 q 360 185 360 150 l 360 383 q 349 394 360 394 l 275 394 q 269 397 272 394 q 268 404 268 400 q 278 431 272 414 q 291 467 285 449 q 303 502 297 486 q 311 525 308 518 q 318 531 311 531 l 538 531 q 544 526 540 531 z "},"h":{"ha":583,"x_min":28,"x_max":554,"o":"m 524 40 l 543 21 q 553 11 549 15 q 554 3 554 8 q 547 -1 553 -1 l 332 -1 q 325 3 328 -1 q 328 11 325 8 l 356 39 q 369 72 369 53 l 369 383 q 357 396 369 396 l 224 396 q 215 392 219 396 q 213 383 213 386 l 213 72 q 226 39 213 53 l 254 11 q 257 3 257 8 q 250 -1 256 -1 l 35 -1 q 28 3 31 -1 q 31 11 28 8 l 58 39 q 72 72 72 53 l 72 397 q 58 432 72 415 l 31 460 q 28 465 28 463 q 31 469 28 467 q 40 479 35 474 q 49 489 44 483 q 58 499 54 494 q 72 532 72 513 l 72 857 q 58 890 72 876 l 31 919 q 28 928 28 921 q 35 932 32 932 l 250 932 q 257 928 253 932 q 254 919 257 921 q 244 910 250 915 q 237 901 242 906 q 226 890 232 896 q 213 857 213 878 l 213 542 q 215 533 213 539 q 224 531 221 531 l 357 531 q 369 542 369 531 l 369 858 q 356 892 369 875 l 328 919 q 325 928 325 921 q 332 932 329 932 l 547 932 q 554 928 550 932 q 553 919 554 921 l 524 890 q 508 857 508 878 l 508 533 q 524 499 508 514 l 553 469 q 553 467 553 468 q 554 465 554 467 q 553 462 554 463 q 553 460 553 461 l 524 431 q 508 397 508 418 l 508 74 q 524 40 508 53 z "},"i":{"ha":285,"x_min":28,"x_max":257,"o":"m 254 11 q 257 3 257 8 q 250 -1 256 -1 l 35 -1 q 28 3 31 -1 q 31 11 28 8 l 58 39 q 72 72 72 53 l 72 397 q 58 432 72 418 l 40 450 q 31 460 35 456 q 28 465 28 463 q 31 469 28 467 q 40 479 35 474 q 49 489 44 483 q 58 499 54 494 q 72 532 72 511 l 72 857 q 58 890 72 878 q 49 901 54 896 q 40 910 44 906 q 31 919 35 915 q 28 928 28 921 q 35 932 32 932 l 250 932 q 257 928 253 932 q 254 919 257 921 l 226 890 q 213 857 213 878 l 213 532 q 226 499 213 511 q 237 489 232 494 q 244 479 242 483 q 254 469 250 474 q 257 465 257 467 q 254 460 257 463 q 244 450 250 456 q 226 432 238 442 q 213 397 213 418 l 213 72 q 226 39 213 53 l 254 11 z "},"j":{"ha":478,"x_min":1,"x_max":454,"o":"m 450 469 q 453 465 453 467 q 450 460 453 463 l 422 432 q 408 399 408 418 l 408 197 q 389 99 408 142 q 367 63 381 81 q 334 30 354 44 q 286 7 314 15 q 222 -1 258 -1 l 188 -1 q 77 30 115 -1 q 22 99 39 61 q 1 197 1 142 l 1 254 q 14 275 1 268 q 41 289 25 281 q 74 306 57 297 q 106 322 90 314 q 131 335 121 331 q 138 335 135 338 q 142 329 142 333 l 142 185 q 147 157 142 167 q 160 142 153 147 q 176 135 167 136 q 190 133 185 133 l 218 133 q 250 142 232 133 q 268 185 268 150 l 268 397 q 254 431 268 418 l 225 460 q 224 465 224 461 q 225 469 224 468 q 235 479 229 475 q 244 490 239 485 q 254 500 250 494 q 268 533 268 513 l 268 857 q 254 890 268 876 l 225 919 q 224 928 221 924 q 231 932 228 932 l 444 932 q 451 928 447 932 q 450 919 454 924 l 422 892 q 408 858 408 878 l 408 532 q 422 497 408 514 q 440 479 433 489 q 450 469 446 474 z "},"k":{"ha":579,"x_min":28,"x_max":585,"o":"m 582 11 q 583 3 585 6 q 576 -1 582 -1 l 338 -1 q 332 3 332 -1 q 333 11 329 7 l 346 24 q 354 76 369 47 q 328 133 344 100 q 297 200 313 167 q 267 262 281 233 q 247 303 254 290 q 243 306 247 306 q 239 303 242 306 l 214 253 q 213 243 213 250 l 213 74 q 226 39 213 53 l 254 11 q 257 3 257 8 q 250 -1 256 -1 l 35 -1 q 28 3 31 -1 q 31 11 28 8 l 58 39 q 72 72 72 53 l 72 399 q 58 432 72 415 l 31 460 q 28 465 28 463 q 31 469 28 467 q 40 479 35 474 q 49 489 44 483 q 58 499 54 494 q 72 532 72 513 l 72 857 q 58 892 72 875 l 40 910 q 31 919 35 915 q 28 928 28 921 q 35 932 32 932 l 250 932 q 257 928 253 932 q 254 919 257 921 q 244 910 250 915 q 237 901 242 906 q 226 890 232 896 q 213 857 213 878 l 213 561 q 215 556 213 558 q 221 558 221 556 q 247 620 231 581 q 282 703 264 660 q 317 787 300 746 q 344 853 335 828 q 348 881 350 867 q 335 904 346 894 l 319 919 q 318 928 315 924 q 325 932 322 932 l 564 932 q 569 928 569 932 q 568 919 572 922 q 550 900 558 910 l 521 871 q 511 858 515 868 q 476 787 503 840 q 419 671 449 733 q 362 553 389 608 q 324 475 335 497 q 324 454 319 465 q 346 410 331 440 q 380 343 361 381 q 419 265 399 306 q 458 188 440 225 q 491 124 476 151 q 511 85 506 96 q 519 72 514 79 q 536 57 526 67 q 557 36 546 47 q 582 11 568 24 z "},"l":{"ha":435,"x_min":28,"x_max":439,"o":"m 435 182 q 439 176 439 181 l 439 10 q 435 1 439 6 q 426 -1 432 -1 l 35 -1 q 28 3 31 -1 q 31 11 28 8 l 58 39 q 72 72 72 53 l 72 397 q 58 432 72 418 l 31 460 q 28 465 28 463 q 31 471 28 468 l 58 499 q 72 532 72 513 l 72 857 q 58 892 72 878 l 31 919 q 28 928 28 922 q 35 932 31 932 l 250 932 q 257 928 256 932 q 254 919 257 922 q 244 910 250 915 q 226 892 238 901 q 213 857 213 878 l 213 532 q 226 499 213 513 l 254 471 q 257 465 257 468 q 254 460 257 463 l 226 432 q 213 397 213 418 l 213 146 q 224 133 213 133 l 360 133 q 393 147 379 133 l 426 181 q 435 182 431 185 z "},"m":{"ha":722,"x_min":28,"x_max":696,"o":"m 663 39 q 673 30 668 35 q 682 21 678 25 q 692 11 688 15 q 693 3 696 7 q 686 -1 692 -1 l 472 -1 q 465 3 468 -1 q 467 11 464 6 q 476 21 471 15 q 486 30 481 25 q 496 39 492 35 q 510 72 510 56 l 510 489 q 506 493 510 493 q 500 490 500 493 q 478 420 492 464 q 451 332 465 376 q 426 250 438 288 q 410 197 414 213 q 399 189 408 189 l 321 189 q 310 197 313 189 q 294 250 306 213 q 269 332 282 288 q 242 420 256 376 q 221 492 229 464 q 217 494 221 499 q 213 490 213 494 l 213 74 q 226 39 213 53 l 254 11 q 257 3 257 8 q 250 -1 256 -1 l 35 -1 q 28 3 31 -1 q 31 11 28 8 l 58 39 q 72 72 72 56 l 72 399 q 58 432 72 415 l 31 460 q 28 465 28 463 q 31 471 28 468 l 58 499 q 72 532 72 513 l 72 857 q 58 892 72 875 l 31 919 q 28 928 28 922 q 35 932 31 932 l 250 932 q 257 928 256 932 q 254 919 257 922 l 239 903 q 226 857 219 885 q 244 797 233 835 q 267 716 254 760 q 294 625 281 672 q 319 535 307 578 q 342 460 332 493 q 357 408 351 426 q 361 406 357 406 q 365 408 365 406 q 381 460 371 426 q 402 538 390 494 q 428 627 414 581 q 453 718 442 674 q 476 799 465 763 q 493 858 486 836 q 481 906 500 886 l 467 919 q 465 928 464 925 q 472 932 468 932 l 686 932 q 693 928 692 932 q 692 919 696 924 l 663 890 q 649 857 649 876 l 649 532 q 663 499 649 515 q 673 490 668 494 q 682 481 678 485 q 692 471 688 475 q 694 465 694 468 q 692 460 694 463 q 682 450 688 456 q 673 442 678 447 q 663 432 668 438 q 649 397 649 415 l 649 74 q 663 39 649 56 z "},"n":{"ha":614,"x_min":28,"x_max":586,"o":"m 583 11 q 585 3 586 6 q 578 -1 583 -1 l 363 -1 q 357 3 360 -1 q 358 11 354 7 l 375 28 q 386 76 396 49 q 365 138 378 100 q 336 221 351 175 q 303 315 321 267 q 271 408 286 364 q 243 490 256 453 q 222 550 231 528 q 217 554 221 554 q 213 549 213 553 l 213 72 q 226 39 213 56 l 254 11 q 257 3 257 8 q 250 -1 256 -1 l 35 -1 q 28 3 31 -1 q 31 11 28 8 q 40 21 35 15 q 49 31 44 25 q 58 40 54 36 q 72 74 72 53 l 72 397 q 58 432 72 418 l 31 460 q 28 465 28 463 q 31 471 28 468 l 58 499 q 72 533 72 513 l 72 857 q 58 890 72 878 q 49 901 54 896 q 40 910 44 906 q 31 919 35 915 q 28 928 28 922 q 35 932 31 932 l 250 932 q 257 928 256 932 q 254 919 257 922 l 251 917 q 240 868 231 896 q 260 808 247 846 q 286 726 272 771 q 316 633 300 682 q 346 540 332 585 q 372 458 360 496 q 392 397 385 419 q 397 393 394 393 q 401 399 401 397 l 401 857 q 388 890 401 876 l 358 919 q 357 928 354 924 q 363 932 360 932 l 578 932 q 585 928 583 932 q 583 919 586 925 q 574 910 579 915 q 565 902 569 907 q 554 892 560 897 q 540 858 540 875 l 540 532 q 554 499 540 513 q 565 490 560 494 q 574 481 569 485 q 583 471 579 475 q 585 465 585 469 q 583 460 585 461 q 574 450 579 456 q 565 442 569 447 q 554 432 560 438 q 540 399 540 418 l 540 72 q 554 39 540 56 l 583 11 z "},"o":{"ha":579,"x_min":21,"x_max":558,"o":"m 556 469 q 558 465 558 467 q 556 460 558 463 l 528 432 q 514 397 514 418 l 514 196 q 493 97 514 140 q 472 61 485 79 q 438 29 458 43 q 391 7 418 15 q 326 -1 364 -1 l 251 -1 q 188 7 215 -1 q 141 29 161 15 q 108 61 121 43 q 86 97 94 79 q 65 196 65 140 l 65 397 q 51 432 65 418 l 24 460 q 21 465 21 463 q 24 469 21 467 q 33 479 28 474 q 42 489 38 483 q 51 499 47 494 q 65 532 65 511 l 65 735 q 86 833 65 790 q 141 901 103 871 q 251 932 179 932 l 326 932 q 438 901 400 932 q 493 833 476 871 q 514 735 514 790 l 514 532 q 528 499 514 511 q 538 489 533 494 q 546 479 543 483 q 556 469 551 474 m 374 746 q 368 773 374 763 q 355 788 363 783 q 339 794 347 793 q 324 796 331 796 l 254 796 q 240 794 249 796 q 224 788 231 793 q 211 773 217 783 q 206 746 206 763 l 206 185 q 211 157 206 167 q 224 142 217 147 q 240 135 231 136 q 254 133 249 133 l 324 133 q 356 142 338 133 q 374 185 374 150 l 374 746 z "},"p":{"ha":522,"x_min":28,"x_max":501,"o":"m 501 539 q 482 440 501 483 q 460 404 474 422 q 427 372 447 386 q 379 349 407 357 q 315 340 351 340 l 224 340 q 215 336 218 340 q 213 328 213 332 l 213 72 q 226 39 213 53 q 237 30 232 35 q 246 21 242 25 q 256 11 251 15 q 257 3 257 8 q 250 -1 256 -1 l 35 -1 q 28 3 31 -1 q 31 11 28 8 l 58 39 q 72 72 72 56 l 72 397 q 58 432 72 415 l 31 460 q 28 465 28 463 q 31 469 28 467 q 40 479 35 474 q 49 489 44 483 q 58 499 54 494 q 72 532 72 513 l 72 857 q 58 892 72 875 l 40 910 q 31 919 35 915 q 28 928 28 921 q 35 932 31 932 l 315 932 q 379 924 351 932 q 427 901 407 915 q 460 870 447 888 q 482 833 474 853 q 501 735 501 790 l 501 539 m 363 746 q 357 773 363 763 q 344 788 351 783 q 328 794 336 793 q 313 796 319 796 l 224 796 q 215 793 218 796 q 213 785 213 788 l 213 488 q 215 479 213 483 q 224 475 218 475 l 313 475 q 328 476 319 475 q 344 483 336 478 q 357 499 351 489 q 363 528 363 510 l 363 746 z "},"q":{"ha":579,"x_min":21,"x_max":558,"o":"m 556 469 q 558 465 558 467 q 556 460 558 463 l 528 432 q 514 397 514 418 l 514 196 q 500 113 514 151 q 462 49 489 81 q 382 4 435 17 q 389 -18 386 -7 q 396 -40 392 -29 q 403 -60 400 -50 q 426 -97 408 -79 l 468 -139 q 469 -147 471 -144 q 463 -151 468 -151 l 249 -151 q 242 -147 244 -151 q 243 -139 239 -143 l 256 -126 q 267 -78 275 -107 q 258 -53 263 -67 q 250 -28 253 -39 q 240 -1 244 -15 q 136 33 172 1 q 85 100 100 64 q 65 196 65 143 l 65 397 q 51 432 65 418 l 24 460 q 21 465 21 463 q 24 469 21 467 q 33 479 28 474 q 42 489 38 483 q 51 499 47 494 q 65 532 65 511 l 65 735 q 86 833 65 790 q 141 901 103 871 q 251 932 179 932 l 326 932 q 438 901 400 932 q 493 833 476 871 q 514 735 514 790 l 514 532 q 528 499 514 511 q 538 489 533 494 q 546 479 543 483 q 556 469 551 474 m 374 746 q 368 773 374 763 q 355 788 363 783 q 339 794 347 793 q 324 796 331 796 l 254 796 q 240 794 249 796 q 224 788 231 793 q 211 773 217 783 q 206 746 206 763 l 206 185 q 211 157 206 167 q 224 142 217 147 q 240 135 231 136 q 254 133 249 133 l 324 133 q 356 142 338 133 q 374 185 374 150 l 374 746 z "},"r":{"ha":567,"x_min":28,"x_max":556,"o":"m 551 11 q 553 3 556 7 q 547 -1 551 -1 l 332 -1 q 325 3 328 -1 q 326 11 324 6 l 361 44 q 328 181 343 118 q 315 235 322 208 q 303 286 308 263 q 293 328 297 310 q 286 357 289 347 q 274 367 283 367 l 224 367 q 213 354 213 367 l 213 53 l 254 11 q 257 3 257 8 q 250 -1 256 -1 l 35 -1 q 28 3 31 -1 q 31 11 28 8 l 72 53 l 72 418 l 31 460 q 28 465 28 463 q 31 469 28 467 l 72 513 l 72 857 q 58 890 72 876 q 49 901 54 896 q 40 910 44 906 q 31 919 35 915 q 28 928 28 921 q 35 932 32 932 l 315 932 q 379 924 351 932 q 427 901 407 915 q 460 870 447 888 q 482 833 474 853 q 501 735 501 790 l 501 565 q 494 504 501 535 q 473 450 488 478 q 431 400 458 422 q 426 388 425 396 q 444 315 432 368 q 472 203 457 261 q 508 54 489 135 l 551 11 m 363 746 q 357 773 363 763 q 344 788 351 783 q 328 794 336 793 q 313 796 319 796 l 224 796 q 215 793 218 796 q 213 785 213 788 l 213 513 q 215 504 213 510 q 224 501 221 501 l 313 501 q 328 503 319 501 q 344 510 336 504 q 357 526 351 515 q 363 553 363 536 l 363 746 z "},"s":{"ha":486,"x_min":32,"x_max":453,"o":"m 453 196 q 433 97 453 140 q 412 61 425 79 q 378 29 399 43 q 331 7 358 15 q 267 -1 303 -1 l 218 -1 q 108 30 146 -1 q 53 99 69 61 q 32 197 32 142 l 32 217 q 39 228 32 224 q 64 240 47 232 q 99 258 81 249 q 134 276 117 268 q 161 290 151 285 q 168 290 165 293 q 172 283 172 289 l 172 185 q 178 157 172 167 q 190 142 183 147 q 206 135 197 136 q 221 133 215 133 l 264 133 q 279 135 271 133 q 294 142 288 136 q 307 157 301 147 q 313 185 313 167 l 313 272 q 313 300 313 288 q 311 324 314 313 q 299 349 308 336 q 269 375 290 361 q 251 381 264 381 q 235 378 244 379 q 218 375 226 378 q 197 372 208 374 q 192 372 197 372 q 189 378 189 375 l 183 408 q 163 440 181 429 q 99 485 124 464 q 62 531 75 506 q 44 588 49 556 q 39 665 39 619 l 39 735 q 58 833 39 790 q 114 901 75 871 q 225 932 153 932 l 256 932 q 319 924 292 932 q 367 901 347 915 q 401 870 388 888 q 422 833 414 853 q 442 735 442 790 l 442 711 q 436 700 442 706 q 412 688 428 696 q 377 670 396 679 q 342 652 358 661 q 314 638 325 643 q 307 638 314 638 q 304 644 304 640 l 304 746 q 299 773 304 763 q 285 788 293 783 q 269 794 278 793 q 253 796 260 796 l 228 796 q 212 794 221 796 q 195 788 203 793 q 182 773 188 783 q 176 746 176 763 l 176 675 q 176 639 176 654 q 179 610 175 624 q 196 583 183 596 q 233 553 208 569 q 249 549 240 549 q 266 551 256 550 q 286 554 276 553 q 310 558 297 557 q 315 557 313 558 q 317 555 317 556 q 318 553 317 554 q 319 542 319 547 q 322 530 321 536 q 324 517 322 524 q 344 485 328 497 q 392 449 372 467 q 426 408 413 431 q 446 356 439 385 q 453 289 453 328 l 453 196 z "},"t":{"ha":457,"x_min":4,"x_max":451,"o":"m 449 928 q 451 919 451 925 l 451 757 q 447 750 451 753 q 439 751 444 749 q 429 763 433 757 q 419 772 425 767 q 408 782 414 778 q 375 796 396 796 l 310 796 q 297 785 297 796 l 297 532 q 311 499 297 513 l 340 469 q 343 465 343 467 q 340 460 343 463 q 331 450 336 456 q 322 441 326 446 q 311 432 317 436 q 297 397 297 415 l 297 72 q 311 39 297 56 q 322 30 317 35 q 331 21 326 25 q 340 11 336 15 q 342 3 344 7 q 335 -1 340 -1 l 121 -1 q 114 3 117 -1 q 115 11 113 6 q 125 21 119 15 q 135 30 129 25 q 144 39 140 35 q 158 72 158 56 l 158 397 q 144 432 158 415 q 135 441 140 436 q 125 450 129 446 q 115 460 119 456 q 114 465 114 461 q 115 469 114 468 l 144 499 q 158 532 158 513 l 158 785 q 146 796 158 796 l 81 796 q 47 782 60 796 q 37 772 42 778 q 26 763 32 767 q 17 751 22 757 q 8 750 11 749 q 4 757 4 753 l 4 919 q 17 932 4 932 l 440 932 q 449 928 444 932 z "},"u":{"ha":585,"x_min":24,"x_max":563,"o":"m 558 469 q 561 465 561 467 q 558 460 561 463 l 531 432 q 517 397 517 418 l 517 196 q 496 97 517 140 q 474 61 488 79 q 441 29 461 43 q 394 7 421 15 q 329 -1 367 -1 l 254 -1 q 191 7 218 -1 q 144 29 164 15 q 110 61 124 43 q 89 97 97 79 q 68 196 68 140 l 68 397 q 54 432 68 418 l 36 450 q 26 460 31 456 q 24 465 24 463 q 26 469 24 467 q 36 479 31 474 q 45 489 40 483 q 54 499 50 494 q 68 532 68 511 l 68 857 q 54 890 68 878 q 45 901 50 896 q 36 910 40 906 q 26 919 31 915 q 24 928 24 921 q 31 932 28 932 l 246 932 q 253 928 249 932 q 250 919 253 921 q 240 910 246 915 q 233 901 238 906 q 222 890 228 896 q 208 857 208 878 l 208 185 q 214 157 208 167 q 226 142 219 147 q 242 135 233 136 q 257 133 251 133 l 326 133 q 358 142 340 133 q 376 185 376 150 l 376 857 q 363 890 376 876 l 333 919 q 332 928 329 924 q 339 932 336 932 l 554 932 q 560 928 556 932 q 558 919 563 922 q 549 910 554 915 q 540 901 544 906 q 531 890 535 896 q 517 857 517 878 l 517 532 q 531 499 517 511 q 540 489 535 494 q 549 479 544 483 q 558 469 554 474 z "},"v":{"ha":604,"x_min":-3,"x_max":607,"o":"m 607 928 q 604 919 607 921 q 590 906 597 913 q 565 881 579 892 q 553 854 556 871 q 541 792 549 833 q 524 702 533 750 q 507 609 515 654 q 494 538 499 564 q 508 496 490 514 q 517 487 513 492 q 525 478 522 482 q 533 469 529 474 q 536 465 536 467 q 533 460 536 463 l 481 407 q 467 381 469 396 q 456 320 463 361 q 440 233 449 279 q 424 144 432 188 q 411 75 415 100 q 425 33 407 51 l 440 18 q 447 11 443 14 q 449 3 450 6 q 442 -1 447 -1 l 158 -1 q 151 3 154 -1 q 153 11 150 6 q 161 19 157 15 q 170 28 165 24 q 179 36 175 32 q 192 79 196 53 q 180 147 188 104 q 164 235 172 190 q 149 321 156 281 q 138 381 142 361 q 124 407 136 396 l 71 460 q 68 465 68 463 q 71 469 68 467 q 79 478 75 474 q 88 487 83 482 q 96 496 92 492 q 110 538 114 514 q 97 609 106 564 q 81 702 89 654 q 65 792 72 750 q 53 854 57 833 q 39 881 47 872 q 26 892 33 886 q 13 906 19 899 q -1 919 6 913 q -3 928 -3 921 q 4 932 -1 932 l 219 932 q 226 928 225 932 q 225 919 226 921 q 219 914 222 917 q 207 901 214 910 q 193 860 189 883 q 206 783 197 833 q 224 671 214 733 q 244 540 233 608 q 266 409 256 472 q 285 294 276 346 q 297 213 293 242 q 303 208 297 208 q 307 213 307 208 q 319 294 311 242 q 338 409 328 346 q 360 540 349 472 q 381 671 371 608 q 399 783 390 733 q 411 860 407 833 q 397 901 415 883 q 392 908 394 906 q 386 914 389 911 q 381 919 383 917 q 378 928 378 921 q 385 932 381 932 l 600 932 q 607 928 606 932 z "},"w":{"ha":789,"x_min":3,"x_max":788,"o":"m 785 928 q 783 919 788 924 q 772 908 778 914 q 762 899 767 904 q 751 889 757 894 q 739 863 740 876 q 728 798 735 842 q 713 706 721 754 q 699 613 706 658 q 688 542 692 567 q 701 500 683 518 q 712 490 707 494 q 721 479 717 485 q 731 469 726 475 q 733 465 733 467 q 731 460 733 463 l 675 404 q 663 378 665 394 q 653 317 660 357 q 640 231 647 276 q 625 144 632 186 q 614 76 618 101 q 628 35 611 51 q 637 26 632 31 q 644 19 642 22 q 653 11 649 15 q 654 3 654 8 q 647 -1 653 -1 l 432 -1 q 425 3 428 -1 q 428 11 425 8 l 442 25 q 454 64 458 42 q 447 124 451 86 q 438 208 443 161 q 428 308 433 256 q 417 409 422 360 q 406 501 411 458 q 399 574 401 544 q 393 578 397 578 q 389 574 389 578 q 381 503 386 546 q 371 411 376 460 q 360 310 365 363 q 349 213 354 258 q 340 128 344 167 q 333 69 336 90 q 347 31 332 47 l 367 11 q 368 3 371 7 q 361 -1 367 -1 l 147 -1 q 140 3 143 -1 q 142 11 139 6 q 147 17 144 14 q 154 23 150 19 q 161 29 158 26 q 174 71 178 49 q 163 140 169 96 q 149 229 157 183 q 135 316 142 275 q 125 378 129 357 q 113 404 122 394 l 57 460 q 54 465 54 463 q 57 469 54 467 q 67 479 61 475 q 76 490 71 485 q 86 500 82 494 q 100 542 104 518 q 89 613 96 567 q 74 706 82 658 q 60 798 67 754 q 50 863 53 842 q 36 889 49 874 l 6 919 q 3 928 3 921 q 10 932 6 932 l 225 932 q 232 928 231 932 q 231 919 232 921 q 222 911 226 915 q 214 903 218 908 q 204 894 210 899 q 190 856 189 876 q 198 797 193 835 q 208 713 203 760 q 220 617 214 667 q 232 519 226 567 q 242 429 238 471 q 250 361 247 388 q 256 357 250 357 q 260 361 260 357 q 272 472 264 401 q 290 617 281 543 q 307 758 299 692 q 319 856 315 824 q 306 896 321 878 l 282 919 q 279 928 279 921 q 286 932 282 932 l 501 932 q 508 928 507 932 q 507 919 508 921 l 482 896 q 468 856 467 878 q 481 758 472 824 q 498 617 489 692 q 515 472 507 543 q 528 361 524 401 q 533 357 528 357 q 538 361 538 357 q 545 430 540 389 q 556 519 550 471 q 567 617 561 567 q 579 713 574 667 q 590 797 585 760 q 597 856 594 835 q 583 894 599 876 l 567 911 q 558 919 563 915 q 557 928 554 922 q 563 932 557 932 l 778 932 q 785 928 783 932 z "},"x":{"ha":560,"x_min":4,"x_max":557,"o":"m 514 50 q 526 38 519 44 q 538 25 532 32 q 553 11 546 18 q 554 3 556 6 q 547 -1 553 -1 l 332 -1 q 326 3 326 -1 q 328 11 324 7 l 347 31 q 358 78 368 51 q 341 134 351 100 q 320 204 331 168 q 300 272 310 240 q 285 321 290 304 q 281 324 282 324 q 275 321 278 324 q 260 272 269 304 q 239 204 250 240 q 217 134 228 168 q 200 78 207 100 q 199 52 196 65 q 213 29 203 39 q 220 23 217 26 q 226 17 224 19 q 232 11 229 14 q 233 3 233 8 q 226 -1 232 -1 l 11 -1 q 4 3 7 -1 q 7 11 4 8 q 21 25 14 18 q 34 38 28 32 q 44 50 40 44 q 57 68 51 56 q 76 126 63 85 q 107 213 90 167 q 139 306 124 260 q 164 378 154 351 q 153 428 172 406 q 142 439 147 433 q 131 449 136 444 q 119 460 125 454 q 117 465 117 463 q 119 469 117 467 q 131 482 125 475 q 142 493 136 488 q 154 506 149 499 q 165 554 175 526 q 142 624 157 581 q 111 714 126 668 q 82 799 96 760 q 63 857 68 839 q 58 866 60 861 q 51 875 56 871 l 24 903 q 7 919 15 911 q 4 928 4 921 q 11 932 7 932 l 226 932 q 233 928 232 932 q 232 919 233 921 l 215 903 q 203 856 196 883 q 220 800 210 833 q 241 731 231 767 q 260 665 251 696 q 275 617 269 633 q 281 614 278 614 q 285 617 282 614 q 299 665 290 633 q 319 731 308 696 q 340 799 329 765 q 357 854 350 832 q 357 880 360 867 q 344 903 354 893 l 328 919 q 326 928 324 922 q 332 932 326 932 l 547 932 q 554 928 553 932 q 553 919 557 924 l 510 876 q 497 858 501 868 q 478 801 492 842 q 449 715 464 761 q 418 625 433 669 q 393 554 403 581 q 404 504 385 526 q 417 492 411 499 q 428 481 422 486 q 439 469 433 475 q 442 465 442 467 q 439 460 442 463 q 429 449 433 454 q 419 439 424 444 q 407 428 414 433 q 396 378 385 406 q 421 306 406 351 q 452 213 436 260 q 483 126 468 167 q 503 68 497 85 q 514 50 506 57 z "},"y":{"ha":532,"x_min":-10,"x_max":543,"o":"m 540 928 q 539 919 543 924 l 494 875 q 482 856 486 867 q 463 795 476 838 q 434 703 450 753 q 403 607 418 654 q 381 532 389 560 q 392 483 371 504 l 406 469 q 407 465 407 468 q 406 460 407 461 l 350 404 q 335 371 335 389 l 335 72 q 350 39 335 54 l 368 21 q 378 11 374 15 q 379 3 382 7 q 372 -1 378 -1 l 158 -1 q 151 3 154 -1 q 153 11 150 6 l 182 39 q 196 72 196 56 l 196 371 q 182 404 196 388 q 165 421 175 411 q 146 439 154 431 q 125 460 136 450 q 124 465 124 461 q 125 469 124 468 l 139 483 q 151 506 149 493 q 151 532 154 519 q 128 607 143 560 q 97 703 113 654 q 68 795 82 753 q 49 856 54 838 q 36 875 46 867 q 8 903 25 889 q -8 919 0 911 q -10 928 -10 921 q -3 932 -8 932 l 213 932 q 219 928 218 932 q 218 919 219 921 q 213 914 215 917 q 199 901 204 906 q 186 856 181 881 q 203 790 193 831 q 224 704 213 749 q 244 619 235 660 q 260 558 254 579 q 265 554 264 554 q 269 558 269 554 q 285 619 275 579 q 306 704 294 660 q 328 790 317 749 q 344 856 339 831 q 332 901 350 881 l 314 919 q 313 928 310 922 q 318 932 313 932 l 533 932 q 540 928 539 932 z "},"z":{"ha":450,"x_min":25,"x_max":422,"o":"m 410 932 q 422 919 422 932 l 422 815 q 421 807 422 810 q 402 753 417 794 q 370 665 388 713 q 337 574 353 617 q 315 515 321 531 q 318 503 313 508 q 327 493 322 499 q 338 482 332 488 q 350 469 343 476 q 353 465 353 467 q 350 460 353 463 q 319 428 333 443 q 292 402 306 415 q 271 381 279 389 q 260 364 265 375 q 243 318 254 349 q 220 253 232 288 q 197 189 208 219 q 181 143 186 158 q 182 136 179 142 q 188 133 185 133 l 350 133 q 360 138 356 133 l 403 181 q 411 182 407 185 q 415 176 415 181 l 415 10 q 411 1 415 6 q 403 -1 408 -1 l 38 -1 q 29 1 32 -1 q 25 10 25 6 l 25 115 q 26 124 25 121 q 45 176 31 135 q 77 264 60 217 q 110 354 94 311 q 132 413 126 397 q 129 425 135 419 l 94 460 q 92 465 92 463 q 94 469 92 467 q 111 488 100 476 q 135 511 122 499 q 159 535 147 524 q 178 554 171 547 q 189 571 185 561 q 205 616 194 586 q 228 679 215 646 q 251 743 240 713 q 267 788 261 774 q 265 793 269 790 q 260 796 264 796 l 101 796 q 93 793 96 796 l 49 749 q 42 747 46 746 q 38 754 38 750 q 38 822 38 790 q 36 877 36 850 q 36 919 36 904 q 40 928 36 926 q 49 932 43 932 l 410 932 z "}}}
